<svg xmlns="http://www.w3.org/2000/svg" version="1.1" xmlns:xlink="http://www.w3.org/1999/xlink" xmlns:svgjs="http://svgjs.dev/svgjs" width="28" height="28"><svg width="28" height="28" viewBox="0 0 28 28" fill="none" xmlns="http://www.w3.org/2000/svg">
<path d="M2 2H26V26H2V2Z" fill="#C2D6FF"></path>
<path d="M14 6L26 26H2L14 6Z" fill="#709FFF"></path>
<path d="M5 21H22.9998L23.5977 22H4.40234L5 21Z" fill="#2C71FB"></path>
<path d="M8.00014 16H20L20.5991 17H7.40234L8.00014 16Z" fill="#2C71FB"></path>
<path d="M10.9997 11H16.9999L17.6014 12H10.3999L10.9997 11Z" fill="#2C71FB"></path>
<path fill-rule="evenodd" clip-rule="evenodd" d="M24 2H4C2.89543 2 2 2.89543 2 4V24C2 25.1046 2.89543 26 4 26H24C25.1046 26 26 25.1046 26 24V4C26 2.89543 25.1046 2 24 2ZM4 0C1.79086 0 0 1.79086 0 4V24C0 26.2091 1.79086 28 4 28H24C26.2091 28 28 26.2091 28 24V4C28 1.79086 26.2091 0 24 0H4Z" fill="black"></path>
</svg><style>@media (prefers-color-scheme: light) { :root { filter: none; } }
@media (prefers-color-scheme: dark) { :root { filter: none; } }
</style></svg>