<svg width="28" height="28" viewBox="0 0 28 28" fill="none" xmlns="http://www.w3.org/2000/svg">
<path d="M2 2H26V26H2V2Z" fill="url(#paint0_radial_689_140)"/>
<path d="M14 6L26 26H2L14 6Z" fill="url(#paint1_linear_689_140)"/>
<path d="M5 21H22.9998L23.5977 22H4.40234L5 21Z" fill="#2364E8"/>
<path d="M8.00014 16H20L20.5991 17H7.40234L8.00014 16Z" fill="#2364E8"/>
<path d="M10.9997 11H16.9999L17.6014 12H10.3999L10.9997 11Z" fill="#2364E8"/>
<path fill-rule="evenodd" clip-rule="evenodd" d="M24 2H4C2.89543 2 2 2.89543 2 4V24C2 25.1046 2.89543 26 4 26H24C25.1046 26 26 25.1046 26 24V4C26 2.89543 25.1046 2 24 2ZM4 0C1.79086 0 0 1.79086 0 4V24C0 26.2091 1.79086 28 4 28H24C26.2091 28 28 26.2091 28 24V4C28 1.79086 26.2091 0 24 0H4Z" fill="black"/>
<defs>
<radialGradient id="paint0_radial_689_140" cx="0" cy="0" r="1" gradientUnits="userSpaceOnUse" gradientTransform="translate(14 14) rotate(90) scale(12)">
<stop offset="0.455" stop-color="#DCE7FF"/>
<stop offset="1" stop-color="#A9C5FF"/>
</radialGradient>
<linearGradient id="paint1_linear_689_140" x1="14" y1="6" x2="14" y2="26" gradientUnits="userSpaceOnUse">
<stop stop-color="#78A5FF"/>
<stop offset="1" stop-color="#528BFF"/>
</linearGradient>
</defs>
</svg>
