<svg width="149" height="28" viewBox="0 0 149 28" fill="none" xmlns="http://www.w3.org/2000/svg">
<path d="M142.842 22.2553C141.529 22.2553 140.396 21.9826 139.441 21.4371C138.492 20.886 137.762 20.1076 137.251 19.1019C136.74 18.0906 136.484 16.9002 136.484 15.5309C136.484 14.1843 136.74 13.0025 137.251 11.9854C137.768 10.9627 138.49 10.1673 139.416 9.59908C140.342 9.02521 141.43 8.73828 142.68 8.73828C143.487 8.73828 144.248 8.86896 144.964 9.13033C145.686 9.38601 146.322 9.78374 146.873 10.3235C147.43 10.8633 147.867 11.5508 148.186 12.386C148.504 13.2156 148.663 14.2042 148.663 15.3519V16.2979H137.933V14.2184H145.705C145.7 13.6275 145.572 13.1019 145.322 12.6417C145.072 12.1758 144.723 11.8093 144.274 11.5423C143.83 11.2752 143.313 11.1417 142.723 11.1417C142.092 11.1417 141.538 11.2951 141.061 11.6019C140.583 11.9031 140.211 12.3008 139.944 12.7951C139.683 13.2837 139.549 13.8207 139.544 14.4059V16.2212C139.544 16.9826 139.683 17.636 139.961 18.1815C140.24 18.7212 140.629 19.136 141.129 19.4258C141.629 19.7099 142.214 19.8519 142.884 19.8519C143.333 19.8519 143.74 19.7894 144.103 19.6644C144.467 19.5337 144.782 19.3434 145.049 19.0934C145.316 18.8434 145.518 18.5337 145.654 18.1644L148.535 18.4883C148.353 19.2496 148.007 19.9144 147.495 20.4826C146.99 21.0451 146.342 21.4826 145.552 21.7951C144.762 22.1019 143.859 22.2553 142.842 22.2553Z" fill="white"/>
<path d="M126.787 22.2301C125.759 22.2301 124.838 21.9659 124.026 21.4375C123.213 20.909 122.571 20.142 122.099 19.1363C121.628 18.1306 121.392 16.909 121.392 15.4715C121.392 14.017 121.631 12.7897 122.108 11.7897C122.591 10.784 123.242 10.0255 124.06 9.51416C124.878 8.99712 125.79 8.73859 126.796 8.73859C127.563 8.73859 128.193 8.86927 128.688 9.13064C129.182 9.38632 129.574 9.69598 129.864 10.0596C130.153 10.4176 130.378 10.7556 130.537 11.0738H130.665V4.54541H133.759V22H130.724V19.9375H130.537C130.378 20.2556 130.148 20.5937 129.847 20.9517C129.545 21.3039 129.148 21.6051 128.653 21.8551C128.159 22.1051 127.537 22.2301 126.787 22.2301ZM127.648 19.6988C128.301 19.6988 128.858 19.5227 129.318 19.1704C129.778 18.8125 130.128 18.3153 130.367 17.6789C130.605 17.0426 130.724 16.3011 130.724 15.4545C130.724 14.6079 130.605 13.8721 130.367 13.2471C130.134 12.6221 129.787 12.1363 129.327 11.7897C128.872 11.4431 128.313 11.2698 127.648 11.2698C126.96 11.2698 126.386 11.4488 125.926 11.8068C125.466 12.1647 125.119 12.659 124.886 13.2897C124.653 13.9204 124.537 14.642 124.537 15.4545C124.537 16.2727 124.653 17.0028 124.886 17.6448C125.125 18.2812 125.474 18.784 125.935 19.1534C126.401 19.517 126.972 19.6988 127.648 19.6988Z" fill="white"/>
<path d="M113.038 22.2553C111.759 22.2553 110.651 21.9741 109.714 21.4116C108.776 20.8491 108.049 20.0621 107.532 19.0508C107.021 18.0394 106.765 16.8576 106.765 15.5053C106.765 14.1531 107.021 12.9684 107.532 11.9513C108.049 10.9343 108.776 10.1445 109.714 9.58203C110.651 9.01953 111.759 8.73828 113.038 8.73828C114.316 8.73828 115.424 9.01953 116.362 9.58203C117.299 10.1445 118.024 10.9343 118.535 11.9513C119.052 12.9684 119.311 14.1531 119.311 15.5053C119.311 16.8576 119.052 18.0394 118.535 19.0508C118.024 20.0621 117.299 20.8491 116.362 21.4116C115.424 21.9741 114.316 22.2553 113.038 22.2553ZM113.055 19.7837C113.748 19.7837 114.328 19.5934 114.794 19.2127C115.259 18.8263 115.606 18.3093 115.833 17.6616C116.066 17.0139 116.183 16.2923 116.183 15.4968C116.183 14.6957 116.066 13.9712 115.833 13.3235C115.606 12.6701 115.259 12.1502 114.794 11.7638C114.328 11.3775 113.748 11.1843 113.055 11.1843C112.345 11.1843 111.754 11.3775 111.282 11.7638C110.816 12.1502 110.467 12.6701 110.234 13.3235C110.007 13.9712 109.893 14.6957 109.893 15.4968C109.893 16.2923 110.007 17.0139 110.234 17.6616C110.467 18.3093 110.816 18.8263 111.282 19.2127C111.754 19.5934 112.345 19.7837 113.055 19.7837Z" fill="white"/>
<path d="M104.019 4.54541V22H101.206L92.9816 10.1108H92.8367V22H89.6748V4.54541H92.5043L100.72 16.4431H100.874V4.54541H104.019Z" fill="white"/>
<path d="M83.5745 9.34357C83.4949 8.59926 83.1597 8.01971 82.5688 7.60494C81.9836 7.19016 81.2222 6.98278 80.2847 6.98278C79.6256 6.98278 79.0603 7.08221 78.5887 7.28107C78.1171 7.47994 77.7563 7.74982 77.5063 8.09073C77.2563 8.43164 77.1285 8.82085 77.1228 9.25835C77.1228 9.62198 77.2052 9.93732 77.3699 10.2044C77.5404 10.4714 77.7705 10.6987 78.0603 10.8862C78.3501 11.068 78.6711 11.2214 79.0233 11.3464C79.3756 11.4714 79.7307 11.5765 80.0887 11.6618L81.7251 12.0708C82.3841 12.2243 83.0177 12.4316 83.6256 12.693C84.2393 12.9544 84.7876 13.2839 85.2705 13.6816C85.7591 14.0794 86.1455 14.5595 86.4296 15.122C86.7137 15.6845 86.8557 16.3436 86.8557 17.0993C86.8557 18.122 86.5944 19.0225 86.0716 19.801C85.5489 20.5737 84.7932 21.1788 83.8046 21.6163C82.8216 22.0481 81.6313 22.264 80.2336 22.264C78.8756 22.264 77.6966 22.0538 76.6966 21.6333C75.7023 21.2129 74.9239 20.5993 74.3614 19.7924C73.8046 18.9856 73.5035 18.0027 73.458 16.8436H76.5688C76.6143 17.4515 76.8018 17.9572 77.1313 18.3606C77.4609 18.764 77.8898 19.0652 78.4182 19.264C78.9523 19.4629 79.5489 19.5623 80.208 19.5623C80.8955 19.5623 81.4978 19.4601 82.0148 19.2555C82.5376 19.0453 82.9466 18.7555 83.2421 18.3862C83.5376 18.0112 83.6881 17.5737 83.6938 17.0737C83.6881 16.6191 83.5546 16.2441 83.2932 15.9487C83.0319 15.6476 82.6654 15.3976 82.1938 15.1987C81.7279 14.9941 81.1824 14.8123 80.5574 14.6532L78.5716 14.1419C77.1341 13.7726 75.9978 13.2129 75.1626 12.4629C74.333 11.7072 73.9182 10.7044 73.9182 9.45437C73.9182 8.42596 74.1966 7.52539 74.7535 6.75266C75.316 5.97994 76.0802 5.3805 77.0461 4.95437C78.012 4.52255 79.1057 4.30664 80.3273 4.30664C81.566 4.30664 82.6512 4.52255 83.583 4.95437C84.5205 5.3805 85.2563 5.97425 85.7904 6.73562C86.3245 7.4913 86.6001 8.36062 86.6171 9.34357H83.5745Z" fill="white"/>
<path d="M70.6436 4.54541V22H67.8311L59.6066 10.1108H59.4617V22H56.2998V4.54541H59.1294L67.3453 16.4431H67.4987V4.54541H70.6436Z" fill="white"/>
<path d="M41.7217 22V4.54541H53.074V7.19598H44.8836V11.9346H52.4859V14.5852H44.8836V19.3494H53.1421V22H41.7217Z" fill="white"/>
<rect x="1" y="1" width="26" height="26" rx="3" fill="#528BFF" stroke="white" stroke-width="2"/>
<path d="M8.11704 12.4324C8.29929 12.8207 8.75095 13.5893 8.75095 13.5893L13.941 5.00781L8.8698 8.54183C8.5687 8.73992 8.32306 9.01726 8.14874 9.33421C7.68123 10.3088 7.67331 11.4419 8.11704 12.4324Z" fill="url(#paint0_linear_536_2148)"/>
<path d="M6.05691 15.2533C6.17576 16.9173 6.99984 18.4466 8.32311 19.4529L13.9252 23.3593C13.9252 23.3593 10.4229 18.3039 7.45942 13.2802C7.15831 12.7494 6.96022 12.1709 6.86513 11.5687C6.82551 11.2993 6.82551 11.022 6.86513 10.7446C6.7859 10.8873 6.63534 11.1804 6.63534 11.1804C6.33424 11.7906 6.12822 12.4482 6.03313 13.1218C5.98559 13.827 5.98559 14.5481 6.05691 15.2533Z" fill="white"/>
<path d="M20.3513 15.9347C20.1691 15.5464 19.7174 14.7778 19.7174 14.7778L14.5273 23.3593L19.5907 19.8253C19.8918 19.6272 20.1374 19.3499 20.3117 19.0329C20.7871 18.0504 20.7951 16.9173 20.3513 15.9347Z" fill="url(#paint1_linear_536_2148)"/>
<path d="M22.4118 13.106C22.2929 11.442 21.4689 9.91276 20.1456 8.90643L14.5435 5C14.5435 5 18.0458 10.0554 21.0093 15.0791C21.3104 15.61 21.5085 16.1884 21.6036 16.7906C21.6432 17.06 21.6432 17.3374 21.6036 17.6147C21.6828 17.4721 21.8334 17.1789 21.8334 17.1789C22.1345 16.5687 22.3405 15.9111 22.4356 15.2376C22.4831 14.5323 22.4831 13.8192 22.4118 13.106Z" fill="white"/>
<path d="M8.14879 9.33421C8.32311 9.01726 8.56875 8.73992 8.86986 8.54183L13.9332 5.00781L8.74307 13.5893C8.74307 13.5893 8.29142 12.8207 8.10917 12.4324C7.66544 11.4419 7.68129 10.3088 8.14879 9.33421ZM6.05691 15.2533C6.17576 16.9173 6.99984 18.4466 8.32311 19.4529L13.9252 23.3593C13.9252 23.3593 10.4229 18.304 7.45942 13.2803C7.15831 12.7494 6.96022 12.1709 6.86513 11.5687C6.82551 11.2993 6.82551 11.022 6.86513 10.7446C6.7859 10.8873 6.63534 11.1805 6.63534 11.1805C6.33424 11.7906 6.12822 12.4483 6.03313 13.1218C5.98559 13.827 5.98559 14.5481 6.05691 15.2533ZM20.3435 15.9347C20.1613 15.5465 19.7096 14.7779 19.7096 14.7779L14.5274 23.3593L19.5908 19.8253C19.8919 19.6272 20.1375 19.3499 20.3118 19.0329C20.7793 18.0583 20.7952 16.9252 20.3435 15.9347ZM22.4037 13.1139C22.2849 11.4499 21.4608 9.92057 20.1375 8.91425L14.5433 5.00781C14.5433 5.00781 18.0456 10.0632 21.0091 15.0869C21.3102 15.6178 21.5083 16.1962 21.6034 16.7984C21.643 17.0678 21.643 17.3452 21.6034 17.6225C21.6826 17.4799 21.8332 17.1867 21.8332 17.1867C22.1343 16.5766 22.3403 15.9189 22.4354 15.2454C22.4909 14.5322 22.4909 13.8191 22.4196 13.1059L22.4037 13.1139Z" fill="white"/>
<defs>
<linearGradient id="paint0_linear_536_2148" x1="14.162" y1="5.21238" x2="7.49953" y2="12.4349" gradientUnits="userSpaceOnUse">
<stop offset="0.58" stop-color="#A0A8D4"/>
<stop offset="0.73" stop-color="#8791C7"/>
<stop offset="0.91" stop-color="#6470B4"/>
</linearGradient>
<linearGradient id="paint1_linear_536_2148" x1="14.3054" y1="23.1503" x2="20.9688" y2="15.9291" gradientUnits="userSpaceOnUse">
<stop offset="0.58" stop-color="#A0A8D4"/>
<stop offset="0.73" stop-color="#8791C7"/>
<stop offset="0.91" stop-color="#6470B4"/>
</linearGradient>
</defs>
</svg>
