<svg width="640" height="340" viewBox="0 0 640 340" fill="none" xmlns="http://www.w3.org/2000/svg">
    <rect width="640" height="340" fill="white"/>
    <g opacity="0.3">
        <path d="M152 179L152 47L488 47L488 179L152 179Z" fill="url(#paint0_linear_255_845)"/>
        <path d="M152 179L152 47L488 47L488 179L152 179Z" fill="url(#paint1_radial_255_845)"/>
    </g>
    <path d="M242 105C242 84.0132 259.013 67 280 67H360C380.987 67 398 84.0132 398 105C398 125.987 380.987 143 360 143H280C259.013 143 242 125.987 242 105Z"
          fill="black" fill-opacity="0.1"/>
    <path d="M242 263C242 242.013 259.013 225 280 225H360C380.987 225 398 242.013 398 263C398 283.987 380.987 301 360 301H280C259.013 301 242 283.987 242 263Z"
          fill="black" fill-opacity="0.05"/>
    <path d="M54 263C54 242.013 71.0132 225 92 225H172C192.987 225 210 242.013 210 263C210 283.987 192.987 301 172 301H92C71.0132 301 54 283.987 54 263Z"
          fill="black" fill-opacity="0.05"/>
    <path d="M430 263C430 242.013 447.013 225 468 225H548C568.987 225 586 242.013 586 263C586 283.987 568.987 301 548 301H468C447.013 301 430 283.987 430 263Z"
          fill="black" fill-opacity="0.05"/>
    <rect x="251" y="234" width="138" height="58" rx="29" fill="url(#paint2_linear_255_845)"/>
    <rect x="251" y="234" width="138" height="58" rx="29" stroke="url(#paint3_linear_255_845)" stroke-width="2"/>
    <path d="M278.483 268V257.818H284.866V259.141H280.019V262.243H284.533V263.56H280.019V266.678H284.926V268H278.483ZM295.136 257.818V268H293.725L288.549 260.533H288.455V268H286.918V257.818H288.34L293.521 265.295H293.615V257.818H295.136ZM302.931 260.493C302.878 260.022 302.659 259.658 302.274 259.399C301.89 259.137 301.406 259.006 300.823 259.006C300.405 259.006 300.044 259.073 299.739 259.205C299.434 259.335 299.197 259.513 299.028 259.742C298.862 259.968 298.779 260.224 298.779 260.513C298.779 260.755 298.836 260.964 298.948 261.139C299.064 261.315 299.215 261.462 299.401 261.582C299.59 261.698 299.792 261.795 300.007 261.875C300.223 261.951 300.43 262.014 300.629 262.064L301.623 262.322C301.948 262.402 302.281 262.51 302.622 262.646C302.964 262.781 303.28 262.96 303.572 263.183C303.864 263.405 304.099 263.68 304.278 264.008C304.46 264.336 304.551 264.729 304.551 265.186C304.551 265.763 304.402 266.275 304.104 266.722C303.809 267.17 303.38 267.523 302.816 267.781C302.256 268.04 301.578 268.169 300.783 268.169C300.021 268.169 299.361 268.048 298.804 267.806C298.247 267.564 297.812 267.221 297.497 266.777C297.182 266.33 297.008 265.799 296.975 265.186H298.516C298.546 265.554 298.665 265.861 298.874 266.106C299.086 266.348 299.356 266.528 299.684 266.648C300.016 266.764 300.379 266.822 300.773 266.822C301.207 266.822 301.593 266.754 301.931 266.618C302.273 266.479 302.541 266.286 302.737 266.041C302.932 265.793 303.03 265.503 303.03 265.171C303.03 264.87 302.944 264.623 302.772 264.43C302.603 264.238 302.372 264.079 302.081 263.953C301.792 263.827 301.466 263.716 301.101 263.62L299.898 263.292C299.083 263.07 298.436 262.743 297.959 262.312C297.485 261.882 297.248 261.312 297.248 260.602C297.248 260.016 297.407 259.504 297.725 259.066C298.044 258.629 298.474 258.289 299.018 258.047C299.562 257.802 300.175 257.679 300.858 257.679C301.547 257.679 302.155 257.8 302.682 258.042C303.212 258.284 303.63 258.617 303.935 259.041C304.24 259.462 304.399 259.946 304.412 260.493H302.931ZM306.387 268V257.818H310.016C310.805 257.818 311.46 257.954 311.98 258.226C312.504 258.498 312.895 258.874 313.153 259.354C313.412 259.832 313.541 260.384 313.541 261.01C313.541 261.633 313.41 262.182 313.149 262.656C312.89 263.126 312.499 263.492 311.975 263.754C311.455 264.016 310.8 264.147 310.011 264.147H307.262V262.825H309.872C310.369 262.825 310.774 262.753 311.085 262.611C311.4 262.468 311.631 262.261 311.776 261.989C311.922 261.718 311.995 261.391 311.995 261.01C311.995 260.625 311.921 260.292 311.771 260.011C311.626 259.729 311.395 259.513 311.08 259.364C310.769 259.212 310.359 259.136 309.852 259.136H307.923V268H306.387ZM311.413 263.406L313.929 268H312.179L309.713 263.406H311.413ZM317.514 268.169C317.03 268.169 316.592 268.08 316.201 267.901C315.81 267.718 315.5 267.455 315.271 267.11C315.046 266.765 314.933 266.343 314.933 265.842C314.933 265.411 315.016 265.057 315.182 264.778C315.348 264.5 315.571 264.28 315.853 264.117C316.135 263.955 316.45 263.832 316.798 263.749C317.146 263.666 317.5 263.603 317.862 263.56C318.319 263.507 318.69 263.464 318.975 263.431C319.26 263.395 319.467 263.337 319.597 263.257C319.726 263.178 319.791 263.048 319.791 262.869V262.835C319.791 262.4 319.668 262.064 319.423 261.825C319.181 261.587 318.819 261.467 318.339 261.467C317.838 261.467 317.444 261.578 317.156 261.8C316.871 262.019 316.673 262.263 316.564 262.531L315.167 262.213C315.333 261.749 315.575 261.375 315.893 261.089C316.214 260.801 316.584 260.592 317.002 260.463C317.419 260.33 317.858 260.264 318.319 260.264C318.624 260.264 318.947 260.301 319.288 260.374C319.633 260.443 319.955 260.572 320.253 260.761C320.555 260.95 320.801 261.22 320.994 261.572C321.186 261.92 321.282 262.372 321.282 262.929V268H319.83V266.956H319.771C319.675 267.148 319.53 267.337 319.338 267.523C319.146 267.708 318.899 267.862 318.597 267.985C318.296 268.108 317.935 268.169 317.514 268.169ZM317.837 266.976C318.248 266.976 318.599 266.895 318.891 266.732C319.186 266.57 319.409 266.358 319.562 266.096C319.718 265.831 319.796 265.547 319.796 265.246V264.261C319.743 264.314 319.64 264.364 319.487 264.411C319.338 264.454 319.167 264.492 318.975 264.525C318.783 264.555 318.596 264.583 318.413 264.609C318.231 264.633 318.079 264.652 317.956 264.669C317.668 264.705 317.404 264.767 317.166 264.853C316.93 264.939 316.741 265.063 316.599 265.226C316.46 265.385 316.39 265.597 316.39 265.862C316.39 266.23 316.526 266.509 316.798 266.697C317.069 266.883 317.416 266.976 317.837 266.976ZM323.262 268V260.364H324.748V268H323.262ZM324.013 259.185C323.754 259.185 323.532 259.099 323.347 258.927C323.164 258.751 323.073 258.542 323.073 258.3C323.073 258.055 323.164 257.846 323.347 257.674C323.532 257.498 323.754 257.411 324.013 257.411C324.271 257.411 324.492 257.498 324.674 257.674C324.86 257.846 324.952 258.055 324.952 258.3C324.952 258.542 324.86 258.751 324.674 258.927C324.492 259.099 324.271 259.185 324.013 259.185ZM328.235 263.466V268H326.748V260.364H328.175V261.607H328.27C328.445 261.202 328.72 260.877 329.095 260.632C329.473 260.387 329.948 260.264 330.522 260.264C331.042 260.264 331.498 260.374 331.889 260.592C332.28 260.808 332.583 261.129 332.799 261.557C333.014 261.984 333.122 262.513 333.122 263.143V268H331.635V263.322C331.635 262.768 331.491 262.336 331.203 262.024C330.915 261.709 330.518 261.552 330.015 261.552C329.67 261.552 329.363 261.626 329.095 261.776C328.83 261.925 328.619 262.143 328.464 262.432C328.311 262.717 328.235 263.062 328.235 263.466ZM335.235 268V257.818H336.721V261.602H336.811C336.897 261.442 337.021 261.259 337.184 261.05C337.346 260.841 337.571 260.659 337.86 260.503C338.148 260.344 338.529 260.264 339.003 260.264C339.62 260.264 340.17 260.42 340.654 260.732C341.138 261.043 341.517 261.492 341.792 262.079C342.071 262.665 342.21 263.371 342.21 264.197C342.21 265.022 342.072 265.73 341.797 266.32C341.522 266.906 341.144 267.359 340.664 267.677C340.183 267.992 339.635 268.149 339.018 268.149C338.554 268.149 338.175 268.071 337.88 267.915C337.588 267.76 337.359 267.577 337.194 267.369C337.028 267.16 336.9 266.974 336.811 266.812H336.687V268H335.235ZM336.691 264.182C336.691 264.719 336.769 265.189 336.925 265.594C337.081 265.998 337.306 266.315 337.601 266.543C337.896 266.769 338.258 266.881 338.685 266.881C339.129 266.881 339.5 266.764 339.799 266.528C340.097 266.29 340.322 265.967 340.475 265.559C340.631 265.151 340.709 264.692 340.709 264.182C340.709 263.678 340.632 263.226 340.48 262.825C340.331 262.424 340.105 262.107 339.804 261.875C339.505 261.643 339.133 261.527 338.685 261.527C338.254 261.527 337.89 261.638 337.591 261.86C337.296 262.082 337.073 262.392 336.92 262.79C336.768 263.187 336.691 263.652 336.691 264.182ZM347.096 268.154C346.38 268.154 345.755 267.99 345.222 267.662C344.688 267.334 344.274 266.875 343.979 266.285C343.684 265.695 343.536 265.005 343.536 264.217C343.536 263.424 343.684 262.732 343.979 262.138C344.274 261.545 344.688 261.085 345.222 260.756C345.755 260.428 346.38 260.264 347.096 260.264C347.812 260.264 348.436 260.428 348.97 260.756C349.504 261.085 349.918 261.545 350.213 262.138C350.508 262.732 350.655 263.424 350.655 264.217C350.655 265.005 350.508 265.695 350.213 266.285C349.918 266.875 349.504 267.334 348.97 267.662C348.436 267.99 347.812 268.154 347.096 268.154ZM347.101 266.906C347.565 266.906 347.949 266.784 348.254 266.538C348.559 266.293 348.784 265.967 348.93 265.559C349.079 265.151 349.154 264.702 349.154 264.212C349.154 263.724 349.079 263.277 348.93 262.869C348.784 262.458 348.559 262.129 348.254 261.88C347.949 261.631 347.565 261.507 347.101 261.507C346.633 261.507 346.246 261.631 345.937 261.88C345.632 262.129 345.405 262.458 345.256 262.869C345.11 263.277 345.038 263.724 345.038 264.212C345.038 264.702 345.11 265.151 345.256 265.559C345.405 265.967 345.632 266.293 345.937 266.538C346.246 266.784 346.633 266.906 347.101 266.906ZM353.738 268L351.491 260.364H353.027L354.523 265.972H354.598L356.099 260.364H357.636L359.127 265.947H359.202L360.688 260.364H362.224L359.982 268H358.466L356.915 262.487H356.8L355.249 268H353.738Z"
          fill="black"/>
    <rect x="63" y="234" width="138" height="58" rx="29" fill="url(#paint4_linear_255_845)"/>
    <rect x="63" y="234" width="138" height="58" rx="29" stroke="#E5E7EB" stroke-width="2"/>
    <path d="M94.1948 268V257.818H100.578V259.141H95.731V262.243H100.245V263.56H95.731V266.678H100.638V268H94.1948ZM110.848 257.818V268H109.436L104.261 260.533H104.167V268H102.63V257.818H104.052L109.233 265.295H109.327V257.818H110.848ZM118.643 260.493C118.59 260.022 118.371 259.658 117.986 259.399C117.602 259.137 117.118 259.006 116.535 259.006C116.117 259.006 115.756 259.073 115.451 259.205C115.146 259.335 114.909 259.513 114.74 259.742C114.574 259.968 114.491 260.224 114.491 260.513C114.491 260.755 114.548 260.964 114.66 261.139C114.776 261.315 114.927 261.462 115.113 261.582C115.302 261.698 115.504 261.795 115.719 261.875C115.935 261.951 116.142 262.014 116.341 262.064L117.335 262.322C117.66 262.402 117.993 262.51 118.334 262.646C118.676 262.781 118.992 262.96 119.284 263.183C119.576 263.405 119.811 263.68 119.99 264.008C120.172 264.336 120.263 264.729 120.263 265.186C120.263 265.763 120.114 266.275 119.816 266.722C119.521 267.17 119.092 267.523 118.528 267.781C117.968 268.04 117.29 268.169 116.495 268.169C115.733 268.169 115.073 268.048 114.516 267.806C113.959 267.564 113.523 267.221 113.209 266.777C112.894 266.33 112.72 265.799 112.687 265.186H114.228C114.258 265.554 114.377 265.861 114.586 266.106C114.798 266.348 115.068 266.528 115.396 266.648C115.728 266.764 116.09 266.822 116.485 266.822C116.919 266.822 117.305 266.754 117.643 266.618C117.985 266.479 118.253 266.286 118.449 266.041C118.644 265.793 118.742 265.503 118.742 265.171C118.742 264.87 118.656 264.623 118.483 264.43C118.314 264.238 118.084 264.079 117.792 263.953C117.504 263.827 117.178 263.716 116.813 263.62L115.61 263.292C114.795 263.07 114.148 262.743 113.671 262.312C113.197 261.882 112.96 261.312 112.96 260.602C112.96 260.016 113.119 259.504 113.437 259.066C113.756 258.629 114.186 258.289 114.73 258.047C115.273 257.802 115.887 257.679 116.569 257.679C117.259 257.679 117.867 257.8 118.394 258.042C118.924 258.284 119.342 258.617 119.647 259.041C119.952 259.462 120.111 259.946 120.124 260.493H118.643ZM123.635 257.818V268H122.099V257.818H123.635ZM127.24 263.466V268H125.753V260.364H127.18V261.607H127.275C127.45 261.202 127.725 260.877 128.1 260.632C128.478 260.387 128.953 260.264 129.527 260.264C130.047 260.264 130.503 260.374 130.894 260.592C131.285 260.808 131.588 261.129 131.804 261.557C132.019 261.984 132.127 262.513 132.127 263.143V268H130.64V263.322C130.64 262.768 130.496 262.336 130.208 262.024C129.919 261.709 129.523 261.552 129.02 261.552C128.675 261.552 128.368 261.626 128.1 261.776C127.835 261.925 127.624 262.143 127.468 262.432C127.316 262.717 127.24 263.062 127.24 263.466ZM136.979 268.149C136.363 268.149 135.812 267.992 135.328 267.677C134.848 267.359 134.47 266.906 134.195 266.32C133.923 265.73 133.787 265.022 133.787 264.197C133.787 263.371 133.925 262.665 134.2 262.079C134.478 261.492 134.859 261.043 135.343 260.732C135.827 260.42 136.376 260.264 136.989 260.264C137.463 260.264 137.844 260.344 138.132 260.503C138.424 260.659 138.65 260.841 138.809 261.05C138.971 261.259 139.097 261.442 139.186 261.602H139.276V257.818H140.762V268H139.311V266.812H139.186C139.097 266.974 138.968 267.16 138.799 267.369C138.633 267.577 138.404 267.76 138.113 267.915C137.821 268.071 137.443 268.149 136.979 268.149ZM137.307 266.881C137.735 266.881 138.096 266.769 138.391 266.543C138.689 266.315 138.915 265.998 139.067 265.594C139.223 265.189 139.301 264.719 139.301 264.182C139.301 263.652 139.225 263.187 139.072 262.79C138.92 262.392 138.696 262.082 138.401 261.86C138.106 261.638 137.741 261.527 137.307 261.527C136.86 261.527 136.487 261.643 136.189 261.875C135.89 262.107 135.665 262.424 135.512 262.825C135.363 263.226 135.289 263.678 135.289 264.182C135.289 264.692 135.365 265.151 135.517 265.559C135.67 265.967 135.895 266.29 136.194 266.528C136.495 266.764 136.866 266.881 137.307 266.881ZM146.175 268.154C145.423 268.154 144.775 267.993 144.231 267.672C143.691 267.347 143.273 266.891 142.979 266.305C142.687 265.715 142.541 265.024 142.541 264.232C142.541 263.449 142.687 262.76 142.979 262.163C143.273 261.567 143.684 261.101 144.211 260.766C144.742 260.432 145.362 260.264 146.071 260.264C146.502 260.264 146.919 260.335 147.324 260.478C147.728 260.621 148.091 260.844 148.412 261.149C148.734 261.454 148.988 261.85 149.173 262.337C149.359 262.821 149.452 263.41 149.452 264.102V264.629H143.381V263.516H147.995C147.995 263.125 147.915 262.778 147.756 262.477C147.597 262.172 147.373 261.931 147.085 261.756C146.8 261.58 146.465 261.492 146.081 261.492C145.663 261.492 145.299 261.595 144.987 261.8C144.679 262.003 144.44 262.268 144.271 262.596C144.105 262.921 144.023 263.274 144.023 263.655V264.525C144.023 265.035 144.112 265.469 144.291 265.827C144.473 266.185 144.727 266.459 145.052 266.648C145.376 266.833 145.756 266.926 146.19 266.926C146.472 266.926 146.729 266.886 146.961 266.807C147.193 266.724 147.393 266.601 147.562 266.439C147.731 266.277 147.861 266.076 147.95 265.837L149.357 266.091C149.244 266.505 149.042 266.868 148.751 267.18C148.462 267.488 148.099 267.728 147.662 267.901C147.228 268.07 146.732 268.154 146.175 268.154ZM152.096 260.364L153.782 263.337L155.482 260.364H157.108L154.726 264.182L157.128 268H155.502L153.782 265.146L152.067 268H150.436L152.812 264.182L150.466 260.364H152.096ZM161.624 268.154C160.872 268.154 160.224 267.993 159.681 267.672C159.14 267.347 158.723 266.891 158.428 266.305C158.136 265.715 157.99 265.024 157.99 264.232C157.99 263.449 158.136 262.76 158.428 262.163C158.723 261.567 159.134 261.101 159.661 260.766C160.191 260.432 160.811 260.264 161.52 260.264C161.951 260.264 162.369 260.335 162.773 260.478C163.177 260.621 163.54 260.844 163.862 261.149C164.183 261.454 164.437 261.85 164.622 262.337C164.808 262.821 164.901 263.41 164.901 264.102V264.629H158.83V263.516H163.444C163.444 263.125 163.365 262.778 163.205 262.477C163.046 262.172 162.823 261.931 162.534 261.756C162.249 261.58 161.914 261.492 161.53 261.492C161.112 261.492 160.748 261.595 160.436 261.8C160.128 262.003 159.889 262.268 159.72 262.596C159.555 262.921 159.472 263.274 159.472 263.655V264.525C159.472 265.035 159.561 265.469 159.74 265.827C159.923 266.185 160.176 266.459 160.501 266.648C160.826 266.833 161.205 266.926 161.639 266.926C161.921 266.926 162.178 266.886 162.41 266.807C162.642 266.724 162.843 266.601 163.012 266.439C163.181 266.277 163.31 266.076 163.399 265.837L164.806 266.091C164.694 266.505 164.491 266.868 164.2 267.18C163.911 267.488 163.548 267.728 163.111 267.901C162.677 268.07 162.181 268.154 161.624 268.154ZM166.55 268V260.364H167.987V261.577H168.066C168.206 261.166 168.451 260.843 168.802 260.607C169.157 260.369 169.558 260.249 170.005 260.249C170.098 260.249 170.208 260.253 170.333 260.259C170.463 260.266 170.564 260.274 170.637 260.284V261.706C170.577 261.689 170.471 261.671 170.319 261.651C170.166 261.628 170.014 261.616 169.861 261.616C169.51 261.616 169.197 261.691 168.922 261.84C168.65 261.986 168.434 262.19 168.275 262.452C168.116 262.71 168.037 263.005 168.037 263.337V268H166.55Z"
          fill="black"/>
    <g filter="url(#filter0_i_255_845)">
        <rect x="250" y="75" width="140" height="60" rx="30" fill="url(#paint5_linear_255_845)"/>
        <rect x="251" y="76" width="138" height="58" rx="29" stroke="white" stroke-opacity="0.2" stroke-width="2"/>
        <path d="M289.229 110V99.8182H295.612V101.141H290.765V104.243H295.279V105.56H290.765V108.678H295.672V110H289.229ZM305.883 99.8182V110H304.471L299.295 102.533H299.201V110H297.665V99.8182H299.086L304.267 107.295H304.361V99.8182H305.883ZM313.677 102.493C313.624 102.022 313.405 101.658 313.021 101.399C312.636 101.137 312.152 101.006 311.569 101.006C311.151 101.006 310.79 101.073 310.485 101.205C310.18 101.335 309.943 101.513 309.774 101.742C309.608 101.968 309.525 102.224 309.525 102.513C309.525 102.755 309.582 102.964 309.695 103.139C309.811 103.315 309.961 103.462 310.147 103.582C310.336 103.698 310.538 103.795 310.753 103.875C310.969 103.951 311.176 104.014 311.375 104.064L312.369 104.322C312.694 104.402 313.027 104.51 313.369 104.646C313.71 104.781 314.026 104.96 314.318 105.183C314.61 105.405 314.845 105.68 315.024 106.008C315.206 106.336 315.297 106.729 315.297 107.186C315.297 107.763 315.148 108.275 314.85 108.722C314.555 109.17 314.126 109.523 313.562 109.781C313.002 110.04 312.324 110.169 311.529 110.169C310.767 110.169 310.107 110.048 309.55 109.806C308.994 109.564 308.558 109.221 308.243 108.777C307.928 108.33 307.754 107.799 307.721 107.186H309.262C309.292 107.554 309.411 107.861 309.62 108.106C309.832 108.348 310.102 108.528 310.43 108.648C310.762 108.764 311.125 108.822 311.519 108.822C311.953 108.822 312.339 108.754 312.677 108.618C313.019 108.479 313.287 108.286 313.483 108.041C313.678 107.793 313.776 107.503 313.776 107.171C313.776 106.87 313.69 106.623 313.518 106.43C313.349 106.238 313.118 106.079 312.827 105.953C312.538 105.827 312.212 105.716 311.847 105.62L310.644 105.292C309.829 105.07 309.182 104.743 308.705 104.312C308.231 103.882 307.994 103.312 307.994 102.602C307.994 102.016 308.153 101.504 308.472 101.066C308.79 100.629 309.221 100.289 309.764 100.047C310.308 99.8016 310.921 99.679 311.604 99.679C312.293 99.679 312.901 99.8 313.428 100.042C313.958 100.284 314.376 100.617 314.681 101.041C314.986 101.462 315.145 101.946 315.158 102.493H313.677ZM325.351 99.8182V110H323.939L318.764 102.533H318.669V110H317.133V99.8182H318.555L323.736 107.295H323.83V99.8182H325.351ZM330.69 110.154C329.974 110.154 329.349 109.99 328.815 109.662C328.282 109.334 327.867 108.875 327.572 108.285C327.277 107.695 327.13 107.005 327.13 106.217C327.13 105.424 327.277 104.732 327.572 104.138C327.867 103.545 328.282 103.085 328.815 102.756C329.349 102.428 329.974 102.264 330.69 102.264C331.405 102.264 332.03 102.428 332.564 102.756C333.097 103.085 333.512 103.545 333.807 104.138C334.102 104.732 334.249 105.424 334.249 106.217C334.249 107.005 334.102 107.695 333.807 108.285C333.512 108.875 333.097 109.334 332.564 109.662C332.03 109.99 331.405 110.154 330.69 110.154ZM330.695 108.906C331.159 108.906 331.543 108.784 331.848 108.538C332.153 108.293 332.378 107.967 332.524 107.559C332.673 107.151 332.748 106.702 332.748 106.212C332.748 105.724 332.673 105.277 332.524 104.869C332.378 104.458 332.153 104.129 331.848 103.88C331.543 103.631 331.159 103.507 330.695 103.507C330.227 103.507 329.839 103.631 329.531 103.88C329.226 104.129 328.999 104.458 328.85 104.869C328.704 105.277 328.631 105.724 328.631 106.212C328.631 106.702 328.704 107.151 328.85 107.559C328.999 107.967 329.226 108.293 329.531 108.538C329.839 108.784 330.227 108.906 330.695 108.906ZM338.767 110.149C338.151 110.149 337.6 109.992 337.117 109.677C336.636 109.359 336.258 108.906 335.983 108.32C335.711 107.73 335.575 107.022 335.575 106.197C335.575 105.371 335.713 104.665 335.988 104.079C336.266 103.492 336.648 103.043 337.131 102.732C337.615 102.42 338.164 102.264 338.777 102.264C339.251 102.264 339.632 102.344 339.921 102.503C340.212 102.659 340.438 102.841 340.597 103.05C340.759 103.259 340.885 103.442 340.975 103.602H341.064V99.8182H342.551V110H341.099V108.812H340.975C340.885 108.974 340.756 109.16 340.587 109.369C340.421 109.577 340.192 109.76 339.901 109.915C339.609 110.071 339.231 110.149 338.767 110.149ZM339.095 108.881C339.523 108.881 339.884 108.769 340.179 108.543C340.477 108.315 340.703 107.998 340.855 107.594C341.011 107.189 341.089 106.719 341.089 106.182C341.089 105.652 341.013 105.187 340.86 104.79C340.708 104.392 340.484 104.082 340.189 103.86C339.894 103.638 339.529 103.527 339.095 103.527C338.648 103.527 338.275 103.643 337.977 103.875C337.678 104.107 337.453 104.424 337.301 104.825C337.151 105.226 337.077 105.678 337.077 106.182C337.077 106.692 337.153 107.151 337.305 107.559C337.458 107.967 337.683 108.29 337.982 108.528C338.283 108.764 338.654 108.881 339.095 108.881ZM347.963 110.154C347.211 110.154 346.563 109.993 346.019 109.672C345.479 109.347 345.062 108.891 344.767 108.305C344.475 107.715 344.329 107.024 344.329 106.232C344.329 105.449 344.475 104.76 344.767 104.163C345.062 103.567 345.473 103.101 346 102.766C346.53 102.432 347.15 102.264 347.859 102.264C348.29 102.264 348.707 102.335 349.112 102.478C349.516 102.621 349.879 102.844 350.201 103.149C350.522 103.454 350.776 103.85 350.961 104.337C351.147 104.821 351.24 105.41 351.24 106.102V106.629H345.169V105.516H349.783C349.783 105.125 349.703 104.778 349.544 104.477C349.385 104.172 349.161 103.931 348.873 103.756C348.588 103.58 348.253 103.492 347.869 103.492C347.451 103.492 347.087 103.595 346.775 103.8C346.467 104.003 346.228 104.268 346.059 104.596C345.893 104.921 345.811 105.274 345.811 105.655V106.525C345.811 107.035 345.9 107.469 346.079 107.827C346.261 108.185 346.515 108.459 346.84 108.648C347.165 108.833 347.544 108.926 347.978 108.926C348.26 108.926 348.517 108.886 348.749 108.807C348.981 108.724 349.181 108.601 349.35 108.439C349.519 108.277 349.649 108.076 349.738 107.837L351.145 108.091C351.032 108.505 350.83 108.868 350.539 109.18C350.25 109.488 349.887 109.728 349.45 109.901C349.016 110.07 348.52 110.154 347.963 110.154Z"
              fill="white"/>
    </g>
    <rect x="439" y="234" width="138" height="58" rx="29" fill="url(#paint6_linear_255_845)"/>
    <rect x="439" y="234" width="138" height="58" rx="29" stroke="#E5E7EB" stroke-width="2"/>
    <path d="M473.873 268V257.818H480.256V259.141H475.409V262.243H479.923V263.56H475.409V266.678H480.316V268H473.873ZM490.526 257.818V268H489.114L483.939 260.533H483.844V268H482.308V257.818H483.73L488.91 265.295H489.005V257.818H490.526ZM498.32 260.493C498.267 260.022 498.049 259.658 497.664 259.399C497.28 259.137 496.796 259.006 496.212 259.006C495.795 259.006 495.433 259.073 495.129 259.205C494.824 259.335 494.587 259.513 494.418 259.742C494.252 259.968 494.169 260.224 494.169 260.513C494.169 260.755 494.225 260.964 494.338 261.139C494.454 261.315 494.605 261.462 494.79 261.582C494.979 261.698 495.182 261.795 495.397 261.875C495.612 261.951 495.82 262.014 496.018 262.064L497.013 262.322C497.338 262.402 497.671 262.51 498.012 262.646C498.353 262.781 498.67 262.96 498.962 263.183C499.253 263.405 499.489 263.68 499.668 264.008C499.85 264.336 499.941 264.729 499.941 265.186C499.941 265.763 499.792 266.275 499.494 266.722C499.199 267.17 498.769 267.523 498.206 267.781C497.646 268.04 496.968 268.169 496.173 268.169C495.41 268.169 494.751 268.048 494.194 267.806C493.637 267.564 493.201 267.221 492.886 266.777C492.571 266.33 492.397 265.799 492.364 265.186H493.906C493.935 265.554 494.055 265.861 494.263 266.106C494.476 266.348 494.746 266.528 495.074 266.648C495.405 266.764 495.768 266.822 496.163 266.822C496.597 266.822 496.983 266.754 497.321 266.618C497.662 266.479 497.931 266.286 498.126 266.041C498.322 265.793 498.42 265.503 498.42 265.171C498.42 264.87 498.334 264.623 498.161 264.43C497.992 264.238 497.762 264.079 497.47 263.953C497.182 263.827 496.855 263.716 496.491 263.62L495.288 263.292C494.472 263.07 493.826 262.743 493.349 262.312C492.875 261.882 492.638 261.312 492.638 260.602C492.638 260.016 492.797 259.504 493.115 259.066C493.433 258.629 493.864 258.289 494.408 258.047C494.951 257.802 495.564 257.679 496.247 257.679C496.937 257.679 497.545 257.8 498.072 258.042C498.602 258.284 499.02 258.617 499.325 259.041C499.629 259.462 499.789 259.946 499.802 260.493H498.32ZM502.555 268H500.924L504.588 257.818H506.363L510.027 268H508.396L505.518 259.668H505.438L502.555 268ZM502.828 264.013H508.118V265.305H502.828V264.013ZM514.114 268.149C513.497 268.149 512.947 267.992 512.463 267.677C511.983 267.359 511.605 266.906 511.33 266.32C511.058 265.73 510.922 265.022 510.922 264.197C510.922 263.371 511.06 262.665 511.335 262.079C511.613 261.492 511.994 261.043 512.478 260.732C512.962 260.42 513.511 260.264 514.124 260.264C514.598 260.264 514.979 260.344 515.267 260.503C515.559 260.659 515.784 260.841 515.943 261.05C516.106 261.259 516.232 261.442 516.321 261.602H516.411V257.818H517.897V268H516.445V266.812H516.321C516.232 266.974 516.102 267.16 515.933 267.369C515.768 267.577 515.539 267.76 515.247 267.915C514.956 268.071 514.578 268.149 514.114 268.149ZM514.442 266.881C514.869 266.881 515.231 266.769 515.526 266.543C515.824 266.315 516.049 265.998 516.202 265.594C516.358 265.189 516.436 264.719 516.436 264.182C516.436 263.652 516.359 263.187 516.207 262.79C516.054 262.392 515.831 262.082 515.536 261.86C515.241 261.638 514.876 261.527 514.442 261.527C513.994 261.527 513.622 261.643 513.323 261.875C513.025 262.107 512.8 262.424 512.647 262.825C512.498 263.226 512.423 263.678 512.423 264.182C512.423 264.692 512.5 265.151 512.652 265.559C512.805 265.967 513.03 266.29 513.328 266.528C513.63 266.764 514.001 266.881 514.442 266.881ZM520.019 268V260.364H521.446V261.607H521.54C521.699 261.186 521.959 260.857 522.321 260.622C522.682 260.384 523.114 260.264 523.618 260.264C524.129 260.264 524.556 260.384 524.901 260.622C525.249 260.861 525.506 261.189 525.672 261.607H525.751C525.933 261.199 526.223 260.874 526.621 260.632C527.019 260.387 527.493 260.264 528.043 260.264C528.736 260.264 529.301 260.481 529.738 260.915C530.179 261.35 530.4 262.004 530.4 262.879V268H528.913V263.018C528.913 262.501 528.772 262.127 528.49 261.895C528.209 261.663 527.872 261.547 527.481 261.547C526.997 261.547 526.621 261.696 526.353 261.994C526.084 262.289 525.95 262.669 525.95 263.133V268H524.468V262.924C524.468 262.51 524.339 262.177 524.081 261.925C523.822 261.673 523.486 261.547 523.071 261.547C522.79 261.547 522.529 261.621 522.291 261.771C522.056 261.916 521.865 262.12 521.719 262.382C521.577 262.644 521.505 262.947 521.505 263.292V268H520.019ZM532.392 268V260.364H533.878V268H532.392ZM533.143 259.185C532.884 259.185 532.662 259.099 532.476 258.927C532.294 258.751 532.203 258.542 532.203 258.3C532.203 258.055 532.294 257.846 532.476 257.674C532.662 257.498 532.884 257.411 533.143 257.411C533.401 257.411 533.622 257.498 533.804 257.674C533.989 257.846 534.082 258.055 534.082 258.3C534.082 258.542 533.989 258.751 533.804 258.927C533.622 259.099 533.401 259.185 533.143 259.185ZM537.365 263.466V268H535.878V260.364H537.305V261.607H537.4C537.575 261.202 537.85 260.877 538.225 260.632C538.603 260.387 539.078 260.264 539.652 260.264C540.172 260.264 540.628 260.374 541.019 260.592C541.41 260.808 541.713 261.129 541.929 261.557C542.144 261.984 542.252 262.513 542.252 263.143V268H540.765V263.322C540.765 262.768 540.621 262.336 540.333 262.024C540.044 261.709 539.648 261.552 539.145 261.552C538.8 261.552 538.493 261.626 538.225 261.776C537.96 261.925 537.749 262.143 537.593 262.432C537.441 262.717 537.365 263.062 537.365 263.466Z"
          fill="black"/>
    <path opacity="0.1" d="M242 105C202.916 105 136 144.175 136 221" stroke="url(#paint7_linear_255_845)"
          stroke-width="4"/>
    <path opacity="0.1" d="M319 143V221" stroke="url(#paint8_linear_255_845)" stroke-width="4"/>
    <path opacity="0.1" d="M398 105C437.084 105 504 144.175 504 221" stroke="url(#paint9_linear_255_845)"
          stroke-width="4"/>
    <path d="M171.207 193V182.818H177.83V184.364H173.052V187.129H177.487V188.675H173.052V191.454H177.869V193H171.207ZM188.078 182.818V193H186.438L181.64 186.065H181.556V193H179.711V182.818H181.362L186.154 189.759H186.244V182.818H188.078ZM195.622 185.617C195.575 185.183 195.38 184.845 195.035 184.603C194.694 184.361 194.249 184.24 193.703 184.24C193.318 184.24 192.988 184.298 192.713 184.414C192.438 184.53 192.228 184.687 192.082 184.886C191.936 185.085 191.861 185.312 191.858 185.567C191.858 185.78 191.906 185.964 192.002 186.119C192.102 186.275 192.236 186.408 192.405 186.517C192.574 186.623 192.761 186.713 192.967 186.786C193.172 186.858 193.379 186.92 193.588 186.969L194.543 187.208C194.927 187.298 195.297 187.419 195.651 187.571C196.009 187.723 196.329 187.916 196.611 188.148C196.896 188.38 197.121 188.66 197.287 188.988C197.453 189.316 197.536 189.701 197.536 190.141C197.536 190.738 197.383 191.263 197.078 191.717C196.773 192.168 196.333 192.521 195.756 192.776C195.182 193.028 194.488 193.154 193.673 193.154C192.881 193.154 192.193 193.031 191.61 192.786C191.03 192.541 190.575 192.183 190.247 191.712C189.923 191.242 189.747 190.668 189.72 189.992H191.535C191.561 190.347 191.671 190.642 191.863 190.877C192.055 191.112 192.306 191.288 192.614 191.404C192.925 191.52 193.273 191.578 193.658 191.578C194.059 191.578 194.41 191.518 194.712 191.399C195.017 191.277 195.255 191.107 195.428 190.892C195.6 190.673 195.688 190.418 195.691 190.126C195.688 189.861 195.61 189.643 195.458 189.47C195.305 189.295 195.091 189.149 194.816 189.033C194.544 188.913 194.226 188.807 193.862 188.714L192.703 188.416C191.865 188.201 191.202 187.874 190.715 187.437C190.231 186.996 189.989 186.411 189.989 185.682C189.989 185.082 190.151 184.557 190.476 184.106C190.804 183.655 191.25 183.305 191.813 183.057C192.377 182.805 193.015 182.679 193.727 182.679C194.45 182.679 195.083 182.805 195.627 183.057C196.173 183.305 196.603 183.652 196.914 184.096C197.226 184.537 197.387 185.044 197.396 185.617H195.622ZM207.547 182.818V193H205.907L201.109 186.065H201.025V193H199.18V182.818H200.831L205.623 189.759H205.713V182.818H207.547ZM212.808 193.149C212.063 193.149 211.416 192.985 210.869 192.657C210.323 192.329 209.898 191.87 209.597 191.28C209.298 190.69 209.149 190 209.149 189.212C209.149 188.423 209.298 187.732 209.597 187.138C209.898 186.545 210.323 186.085 210.869 185.756C211.416 185.428 212.063 185.264 212.808 185.264C213.554 185.264 214.2 185.428 214.747 185.756C215.294 186.085 215.717 186.545 216.015 187.138C216.317 187.732 216.468 188.423 216.468 189.212C216.468 190 216.317 190.69 216.015 191.28C215.717 191.87 215.294 192.329 214.747 192.657C214.2 192.985 213.554 193.149 212.808 193.149ZM212.818 191.707C213.223 191.707 213.561 191.596 213.833 191.374C214.104 191.149 214.307 190.847 214.439 190.469C214.575 190.092 214.643 189.671 214.643 189.207C214.643 188.739 214.575 188.317 214.439 187.939C214.307 187.558 214.104 187.254 213.833 187.029C213.561 186.804 213.223 186.691 212.818 186.691C212.404 186.691 212.059 186.804 211.784 187.029C211.512 187.254 211.309 187.558 211.173 187.939C211.04 188.317 210.974 188.739 210.974 189.207C210.974 189.671 211.04 190.092 211.173 190.469C211.309 190.847 211.512 191.149 211.784 191.374C212.059 191.596 212.404 191.707 212.818 191.707ZM220.829 193.134C220.229 193.134 219.692 192.98 219.218 192.672C218.744 192.364 218.37 191.916 218.094 191.33C217.819 190.743 217.682 190.03 217.682 189.192C217.682 188.343 217.821 187.627 218.099 187.044C218.381 186.457 218.761 186.015 219.238 185.717C219.715 185.415 220.247 185.264 220.834 185.264C221.281 185.264 221.649 185.34 221.938 185.493C222.226 185.642 222.455 185.823 222.624 186.035C222.793 186.244 222.924 186.441 223.016 186.626H223.091V182.818H224.896V193H223.126V191.797H223.016C222.924 191.982 222.789 192.18 222.614 192.388C222.438 192.594 222.206 192.77 221.918 192.915C221.629 193.061 221.266 193.134 220.829 193.134ZM221.331 191.658C221.712 191.658 222.037 191.555 222.305 191.349C222.574 191.141 222.778 190.851 222.917 190.479C223.056 190.108 223.126 189.676 223.126 189.182C223.126 188.688 223.056 188.259 222.917 187.894C222.781 187.53 222.579 187.246 222.31 187.044C222.045 186.842 221.719 186.741 221.331 186.741C220.93 186.741 220.595 186.845 220.327 187.054C220.058 187.263 219.856 187.551 219.72 187.919C219.584 188.287 219.516 188.708 219.516 189.182C219.516 189.659 219.584 190.085 219.72 190.46C219.859 190.831 220.063 191.124 220.332 191.339C220.603 191.552 220.937 191.658 221.331 191.658ZM230.194 193.149C229.428 193.149 228.767 192.99 228.21 192.672C227.657 192.35 227.231 191.896 226.933 191.31C226.634 190.72 226.485 190.025 226.485 189.227C226.485 188.441 226.634 187.752 226.933 187.158C227.234 186.562 227.655 186.098 228.195 185.766C228.736 185.432 229.37 185.264 230.1 185.264C230.57 185.264 231.014 185.34 231.432 185.493C231.853 185.642 232.224 185.874 232.546 186.189C232.87 186.504 233.126 186.905 233.311 187.392C233.497 187.876 233.59 188.453 233.59 189.122V189.674H227.33V188.461H231.865C231.861 188.116 231.787 187.81 231.641 187.541C231.495 187.269 231.291 187.056 231.029 186.9C230.771 186.744 230.469 186.666 230.124 186.666C229.757 186.666 229.433 186.756 229.155 186.935C228.877 187.11 228.66 187.342 228.504 187.631C228.351 187.916 228.273 188.229 228.27 188.57V189.629C228.27 190.073 228.351 190.455 228.514 190.773C228.676 191.088 228.903 191.33 229.195 191.499C229.486 191.664 229.828 191.747 230.219 191.747C230.481 191.747 230.718 191.711 230.93 191.638C231.142 191.562 231.326 191.451 231.482 191.305C231.637 191.159 231.755 190.978 231.835 190.763L233.515 190.952C233.409 191.396 233.207 191.784 232.909 192.115C232.614 192.443 232.236 192.698 231.775 192.881C231.314 193.06 230.787 193.149 230.194 193.149ZM239.199 193V185.364H240.372V193H239.199ZM239.795 184.091C239.567 184.091 239.37 184.013 239.204 183.857C239.041 183.701 238.96 183.514 238.96 183.295C238.96 183.077 239.041 182.889 239.204 182.734C239.37 182.578 239.567 182.5 239.795 182.5C240.024 182.5 240.22 182.578 240.382 182.734C240.548 182.889 240.631 183.077 240.631 183.295C240.631 183.514 240.548 183.701 240.382 183.857C240.22 184.013 240.024 184.091 239.795 184.091ZM247.93 187.074L246.876 187.372C246.81 187.196 246.712 187.026 246.583 186.86C246.457 186.691 246.285 186.552 246.066 186.442C245.847 186.333 245.567 186.278 245.226 186.278C244.758 186.278 244.369 186.386 244.057 186.602C243.749 186.814 243.595 187.084 243.595 187.412C243.595 187.704 243.701 187.934 243.913 188.103C244.125 188.272 244.457 188.413 244.907 188.526L246.041 188.804C246.724 188.97 247.233 189.223 247.567 189.565C247.902 189.903 248.069 190.339 248.069 190.872C248.069 191.31 247.943 191.701 247.692 192.045C247.443 192.39 247.095 192.662 246.648 192.861C246.2 193.06 245.68 193.159 245.086 193.159C244.308 193.159 243.663 192.99 243.153 192.652C242.642 192.314 242.319 191.82 242.183 191.17L243.297 190.892C243.403 191.303 243.603 191.611 243.898 191.817C244.197 192.022 244.586 192.125 245.067 192.125C245.613 192.125 246.048 192.009 246.369 191.777C246.694 191.542 246.856 191.26 246.856 190.932C246.856 190.667 246.764 190.445 246.578 190.266C246.392 190.083 246.107 189.947 245.723 189.858L244.45 189.56C243.751 189.394 243.237 189.137 242.909 188.789C242.584 188.438 242.422 187.999 242.422 187.472C242.422 187.041 242.543 186.66 242.785 186.328C243.03 185.997 243.363 185.737 243.784 185.548C244.208 185.359 244.689 185.264 245.226 185.264C245.981 185.264 246.575 185.43 247.006 185.761C247.44 186.093 247.748 186.53 247.93 187.074ZM257.094 185.364V186.358H253.137V185.364H257.094ZM254.29 183.534H255.463V190.812C255.463 191.144 255.511 191.393 255.608 191.558C255.707 191.721 255.833 191.83 255.985 191.886C256.141 191.939 256.305 191.966 256.478 191.966C256.607 191.966 256.713 191.959 256.796 191.946C256.879 191.929 256.945 191.916 256.995 191.906L257.233 192.96C257.154 192.99 257.043 193.02 256.9 193.05C256.758 193.083 256.577 193.099 256.358 193.099C256.027 193.099 255.702 193.028 255.384 192.886C255.069 192.743 254.807 192.526 254.598 192.234C254.393 191.943 254.29 191.575 254.29 191.131V183.534ZM260.196 188.406V193H259.023V182.818H260.196V186.557H260.296C260.475 186.162 260.743 185.849 261.101 185.617C261.462 185.382 261.943 185.264 262.543 185.264C263.063 185.264 263.519 185.369 263.91 185.577C264.301 185.783 264.605 186.099 264.82 186.527C265.039 186.951 265.148 187.491 265.148 188.148V193H263.975V188.227C263.975 187.621 263.817 187.152 263.502 186.82C263.191 186.486 262.758 186.318 262.205 186.318C261.82 186.318 261.476 186.399 261.171 186.562C260.869 186.724 260.631 186.961 260.455 187.273C260.283 187.584 260.196 187.962 260.196 188.406ZM270.496 193.159C269.76 193.159 269.126 192.997 268.592 192.672C268.062 192.344 267.653 191.886 267.364 191.3C267.079 190.71 266.937 190.024 266.937 189.241C266.937 188.459 267.079 187.77 267.364 187.173C267.653 186.573 268.054 186.106 268.567 185.771C269.084 185.433 269.688 185.264 270.377 185.264C270.775 185.264 271.167 185.33 271.555 185.463C271.943 185.596 272.296 185.811 272.614 186.109C272.932 186.404 273.186 186.795 273.375 187.283C273.564 187.77 273.658 188.37 273.658 189.082V189.58H267.772V188.565H272.465C272.465 188.134 272.379 187.75 272.206 187.412C272.037 187.074 271.796 186.807 271.481 186.612C271.169 186.416 270.801 186.318 270.377 186.318C269.91 186.318 269.505 186.434 269.164 186.666C268.826 186.895 268.566 187.193 268.383 187.561C268.201 187.929 268.11 188.323 268.11 188.744V189.42C268.11 189.997 268.209 190.486 268.408 190.887C268.61 191.285 268.89 191.588 269.248 191.797C269.606 192.002 270.022 192.105 270.496 192.105C270.805 192.105 271.083 192.062 271.331 191.976C271.583 191.886 271.8 191.754 271.983 191.578C272.165 191.399 272.306 191.177 272.405 190.912L273.539 191.23C273.42 191.615 273.219 191.953 272.937 192.244C272.656 192.533 272.308 192.758 271.893 192.92C271.479 193.08 271.013 193.159 270.496 193.159ZM279.381 193V185.364H280.514V186.557H280.613C280.773 186.149 281.029 185.833 281.384 185.607C281.739 185.379 282.165 185.264 282.662 185.264C283.166 185.264 283.585 185.379 283.92 185.607C284.258 185.833 284.521 186.149 284.71 186.557H284.79C284.985 186.162 285.278 185.849 285.67 185.617C286.061 185.382 286.53 185.264 287.077 185.264C287.759 185.264 288.318 185.478 288.752 185.906C289.186 186.33 289.403 186.991 289.403 187.889V193H288.23V187.889C288.23 187.326 288.076 186.923 287.768 186.681C287.459 186.439 287.096 186.318 286.679 186.318C286.142 186.318 285.726 186.481 285.431 186.805C285.136 187.127 284.988 187.535 284.988 188.028V193H283.795V187.77C283.795 187.336 283.654 186.986 283.373 186.721C283.091 186.452 282.728 186.318 282.284 186.318C281.979 186.318 281.694 186.399 281.429 186.562C281.167 186.724 280.955 186.95 280.792 187.238C280.633 187.523 280.554 187.853 280.554 188.227V193H279.381ZM296.361 189.878V185.364H297.534V193H296.361V191.707H296.281C296.102 192.095 295.824 192.425 295.446 192.697C295.068 192.965 294.591 193.099 294.014 193.099C293.537 193.099 293.113 192.995 292.742 192.786C292.37 192.574 292.079 192.256 291.867 191.832C291.655 191.404 291.548 190.866 291.548 190.216V185.364H292.722V190.136C292.722 190.693 292.878 191.137 293.189 191.469C293.504 191.8 293.905 191.966 294.392 191.966C294.684 191.966 294.981 191.891 295.282 191.742C295.587 191.593 295.842 191.364 296.048 191.056C296.257 190.748 296.361 190.355 296.361 189.878ZM300.857 182.818V193H299.683V182.818H300.857ZM306.327 185.364V186.358H302.369V185.364H306.327ZM303.523 183.534H304.696V190.812C304.696 191.144 304.744 191.393 304.84 191.558C304.939 191.721 305.065 191.83 305.218 191.886C305.374 191.939 305.538 191.966 305.71 191.966C305.839 191.966 305.945 191.959 306.028 191.946C306.111 191.929 306.177 191.916 306.227 191.906L306.466 192.96C306.386 192.99 306.275 193.02 306.133 193.05C305.99 193.083 305.809 193.099 305.591 193.099C305.259 193.099 304.934 193.028 304.616 192.886C304.301 192.743 304.04 192.526 303.831 192.234C303.625 191.943 303.523 191.575 303.523 191.131V183.534ZM308.091 193V185.364H309.265V193H308.091ZM308.688 184.091C308.459 184.091 308.262 184.013 308.096 183.857C307.934 183.701 307.853 183.514 307.853 183.295C307.853 183.077 307.934 182.889 308.096 182.734C308.262 182.578 308.459 182.5 308.688 182.5C308.917 182.5 309.112 182.578 309.275 182.734C309.44 182.889 309.523 183.077 309.523 183.295C309.523 183.514 309.44 183.701 309.275 183.857C309.112 184.013 308.917 184.091 308.688 184.091ZM314.516 193.159C313.8 193.159 313.184 192.99 312.667 192.652C312.15 192.314 311.752 191.848 311.473 191.255C311.195 190.662 311.056 189.984 311.056 189.222C311.056 188.446 311.198 187.762 311.483 187.168C311.772 186.572 312.173 186.106 312.686 185.771C313.203 185.433 313.807 185.264 314.496 185.264C315.033 185.264 315.517 185.364 315.948 185.562C316.379 185.761 316.732 186.04 317.007 186.398C317.282 186.756 317.453 187.173 317.519 187.651H316.346C316.256 187.303 316.057 186.994 315.749 186.726C315.444 186.454 315.033 186.318 314.516 186.318C314.059 186.318 313.658 186.437 313.313 186.676C312.971 186.911 312.705 187.245 312.512 187.675C312.324 188.103 312.229 188.605 312.229 189.182C312.229 189.772 312.322 190.286 312.507 190.723C312.696 191.161 312.962 191.5 313.303 191.742C313.648 191.984 314.052 192.105 314.516 192.105C314.821 192.105 315.098 192.052 315.346 191.946C315.595 191.84 315.805 191.688 315.978 191.489C316.15 191.29 316.273 191.051 316.346 190.773H317.519C317.453 191.223 317.288 191.629 317.027 191.991C316.768 192.349 316.425 192.634 315.998 192.846C315.573 193.055 315.079 193.159 314.516 193.159ZM320.407 188.406V193H319.234V182.818H320.407V186.557H320.507C320.686 186.162 320.954 185.849 321.312 185.617C321.673 185.382 322.154 185.264 322.754 185.264C323.274 185.264 323.73 185.369 324.121 185.577C324.512 185.783 324.815 186.099 325.031 186.527C325.25 186.951 325.359 187.491 325.359 188.148V193H324.186V188.227C324.186 187.621 324.028 187.152 323.713 186.82C323.402 186.486 322.969 186.318 322.416 186.318C322.031 186.318 321.687 186.399 321.382 186.562C321.08 186.724 320.842 186.961 320.666 187.273C320.493 187.584 320.407 187.962 320.407 188.406ZM329.753 193.179C329.269 193.179 328.83 193.088 328.435 192.906C328.041 192.72 327.728 192.453 327.496 192.105C327.264 191.754 327.148 191.33 327.148 190.832C327.148 190.395 327.234 190.04 327.406 189.768C327.578 189.493 327.809 189.278 328.097 189.122C328.385 188.966 328.704 188.85 329.052 188.774C329.403 188.695 329.756 188.632 330.111 188.585C330.575 188.526 330.951 188.481 331.239 188.451C331.531 188.418 331.743 188.363 331.876 188.287C332.011 188.211 332.079 188.078 332.079 187.889V187.849C332.079 187.359 331.945 186.978 331.677 186.706C331.412 186.434 331.009 186.298 330.469 186.298C329.908 186.298 329.469 186.421 329.151 186.666C328.833 186.911 328.609 187.173 328.48 187.452L327.366 187.054C327.565 186.59 327.83 186.229 328.162 185.97C328.497 185.708 328.861 185.526 329.256 185.423C329.653 185.317 330.044 185.264 330.429 185.264C330.674 185.264 330.956 185.294 331.274 185.354C331.595 185.41 331.905 185.528 332.204 185.707C332.505 185.886 332.756 186.156 332.954 186.517C333.153 186.878 333.253 187.362 333.253 187.969V193H332.079V191.966H332.02C331.94 192.132 331.808 192.309 331.622 192.498C331.436 192.687 331.189 192.848 330.881 192.98C330.573 193.113 330.197 193.179 329.753 193.179ZM329.932 192.125C330.396 192.125 330.787 192.034 331.105 191.852C331.426 191.669 331.668 191.434 331.831 191.146C331.997 190.857 332.079 190.554 332.079 190.236V189.162C332.03 189.222 331.92 189.276 331.751 189.326C331.586 189.372 331.393 189.414 331.175 189.45C330.959 189.483 330.749 189.513 330.543 189.54C330.341 189.563 330.177 189.583 330.051 189.599C329.746 189.639 329.461 189.704 329.196 189.793C328.934 189.879 328.722 190.01 328.559 190.186C328.4 190.358 328.321 190.594 328.321 190.892C328.321 191.3 328.472 191.608 328.773 191.817C329.078 192.022 329.464 192.125 329.932 192.125ZM335.394 193V185.364H336.567V193H335.394ZM335.991 184.091C335.762 184.091 335.565 184.013 335.399 183.857C335.237 183.701 335.156 183.514 335.156 183.295C335.156 183.077 335.237 182.889 335.399 182.734C335.565 182.578 335.762 182.5 335.991 182.5C336.219 182.5 336.415 182.578 336.577 182.734C336.743 182.889 336.826 183.077 336.826 183.295C336.826 183.514 336.743 183.701 336.577 183.857C336.415 184.013 336.219 184.091 335.991 184.091ZM339.89 188.406V193H338.716V185.364H339.85V186.557H339.949C340.128 186.169 340.4 185.857 340.765 185.622C341.129 185.384 341.6 185.264 342.177 185.264C342.694 185.264 343.146 185.37 343.534 185.582C343.922 185.791 344.223 186.109 344.439 186.537C344.654 186.961 344.762 187.498 344.762 188.148V193H343.589V188.227C343.589 187.627 343.433 187.16 343.121 186.825C342.81 186.487 342.382 186.318 341.839 186.318C341.464 186.318 341.129 186.399 340.834 186.562C340.543 186.724 340.312 186.961 340.143 187.273C339.974 187.584 339.89 187.962 339.89 188.406ZM350.843 193V185.364H352.017V193H350.843ZM351.44 184.091C351.211 184.091 351.014 184.013 350.848 183.857C350.686 183.701 350.605 183.514 350.605 183.295C350.605 183.077 350.686 182.889 350.848 182.734C351.014 182.578 351.211 182.5 351.44 182.5C351.669 182.5 351.864 182.578 352.027 182.734C352.192 182.889 352.275 183.077 352.275 183.295C352.275 183.514 352.192 183.701 352.027 183.857C351.864 184.013 351.669 184.091 351.44 184.091ZM355.339 188.406V193H354.166V185.364H355.299V186.557H355.399C355.578 186.169 355.849 185.857 356.214 185.622C356.579 185.384 357.049 185.264 357.626 185.264C358.143 185.264 358.595 185.37 358.983 185.582C359.371 185.791 359.673 186.109 359.888 186.537C360.103 186.961 360.211 187.498 360.211 188.148V193H359.038V188.227C359.038 187.627 358.882 187.16 358.57 186.825C358.259 186.487 357.831 186.318 357.288 186.318C356.913 186.318 356.579 186.399 356.284 186.562C355.992 186.724 355.762 186.961 355.593 187.273C355.423 187.584 355.339 187.962 355.339 188.406ZM365.239 193.159C364.602 193.159 364.04 192.998 363.553 192.677C363.066 192.352 362.685 191.895 362.41 191.305C362.135 190.711 361.997 190.01 361.997 189.202C361.997 188.4 362.135 187.704 362.41 187.114C362.685 186.524 363.068 186.068 363.558 185.746C364.049 185.425 364.616 185.264 365.259 185.264C365.756 185.264 366.148 185.347 366.437 185.513C366.728 185.675 366.951 185.861 367.103 186.07C367.259 186.275 367.38 186.444 367.466 186.577H367.565V182.818H368.739V193H367.605V191.827H367.466C367.38 191.966 367.257 192.142 367.098 192.354C366.939 192.562 366.712 192.75 366.417 192.915C366.122 193.078 365.729 193.159 365.239 193.159ZM365.398 192.105C365.868 192.105 366.266 191.982 366.591 191.737C366.916 191.489 367.163 191.146 367.332 190.708C367.501 190.267 367.585 189.759 367.585 189.182C367.585 188.612 367.502 188.113 367.337 187.685C367.171 187.254 366.926 186.92 366.601 186.681C366.276 186.439 365.875 186.318 365.398 186.318C364.901 186.318 364.486 186.446 364.155 186.701C363.827 186.953 363.58 187.296 363.414 187.73C363.252 188.161 363.17 188.645 363.17 189.182C363.17 189.725 363.253 190.219 363.419 190.663C363.588 191.104 363.837 191.455 364.165 191.717C364.496 191.976 364.907 192.105 365.398 192.105ZM374.252 193.159C373.516 193.159 372.882 192.997 372.348 192.672C371.818 192.344 371.408 191.886 371.12 191.3C370.835 190.71 370.692 190.024 370.692 189.241C370.692 188.459 370.835 187.77 371.12 187.173C371.408 186.573 371.809 186.106 372.323 185.771C372.84 185.433 373.443 185.264 374.133 185.264C374.531 185.264 374.923 185.33 375.311 185.463C375.699 185.596 376.052 185.811 376.37 186.109C376.688 186.404 376.942 186.795 377.131 187.283C377.32 187.77 377.414 188.37 377.414 189.082V189.58H371.528V188.565H376.221C376.221 188.134 376.135 187.75 375.962 187.412C375.793 187.074 375.551 186.807 375.237 186.612C374.925 186.416 374.557 186.318 374.133 186.318C373.665 186.318 373.261 186.434 372.92 186.666C372.582 186.895 372.321 187.193 372.139 187.561C371.957 187.929 371.866 188.323 371.866 188.744V189.42C371.866 189.997 371.965 190.486 372.164 190.887C372.366 191.285 372.646 191.588 373.004 191.797C373.362 192.002 373.778 192.105 374.252 192.105C374.56 192.105 374.839 192.062 375.087 191.976C375.339 191.886 375.556 191.754 375.739 191.578C375.921 191.399 376.062 191.177 376.161 190.912L377.295 191.23C377.175 191.615 376.975 191.953 376.693 192.244C376.411 192.533 376.063 192.758 375.649 192.92C375.235 193.08 374.769 193.159 374.252 193.159ZM379.869 185.364L381.698 188.486L383.528 185.364H384.88L382.414 189.182L384.88 193H383.528L381.698 190.037L379.869 193H378.517L380.943 189.182L378.517 185.364H379.869ZM389.442 193.159C388.706 193.159 388.071 192.997 387.537 192.672C387.007 192.344 386.598 191.886 386.309 191.3C386.024 190.71 385.882 190.024 385.882 189.241C385.882 188.459 386.024 187.77 386.309 187.173C386.598 186.573 386.999 186.106 387.513 185.771C388.03 185.433 388.633 185.264 389.322 185.264C389.72 185.264 390.113 185.33 390.501 185.463C390.888 185.596 391.241 185.811 391.559 186.109C391.878 186.404 392.131 186.795 392.32 187.283C392.509 187.77 392.604 188.37 392.604 189.082V189.58H386.717V188.565H391.41C391.41 188.134 391.324 187.75 391.152 187.412C390.983 187.074 390.741 186.807 390.426 186.612C390.114 186.416 389.747 186.318 389.322 186.318C388.855 186.318 388.451 186.434 388.109 186.666C387.771 186.895 387.511 187.193 387.329 187.561C387.146 187.929 387.055 188.323 387.055 188.744V189.42C387.055 189.997 387.155 190.486 387.354 190.887C387.556 191.285 387.836 191.588 388.194 191.797C388.552 192.002 388.968 192.105 389.442 192.105C389.75 192.105 390.028 192.062 390.277 191.976C390.529 191.886 390.746 191.754 390.928 191.578C391.11 191.399 391.251 191.177 391.351 190.912L392.484 191.23C392.365 191.615 392.164 191.953 391.883 192.244C391.601 192.533 391.253 192.758 390.839 192.92C390.424 193.08 389.959 193.159 389.442 193.159ZM394.388 193V185.364H395.522V186.517H395.601C395.741 186.139 395.992 185.833 396.357 185.597C396.722 185.362 397.133 185.244 397.59 185.244C397.676 185.244 397.784 185.246 397.913 185.249C398.042 185.253 398.14 185.258 398.206 185.264V186.457C398.167 186.447 398.076 186.433 397.933 186.413C397.794 186.389 397.646 186.378 397.491 186.378C397.119 186.378 396.788 186.456 396.496 186.612C396.208 186.764 395.979 186.976 395.81 187.248C395.644 187.516 395.562 187.823 395.562 188.168V193H394.388ZM406.935 185.364V186.358H402.819V185.364H406.935ZM404.052 193V184.31C404.052 183.872 404.155 183.508 404.36 183.216C404.566 182.924 404.832 182.705 405.161 182.56C405.489 182.414 405.835 182.341 406.2 182.341C406.488 182.341 406.723 182.364 406.906 182.411C407.088 182.457 407.224 182.5 407.313 182.54L406.975 183.554C406.915 183.534 406.833 183.509 406.727 183.479C406.624 183.45 406.488 183.435 406.319 183.435C405.931 183.435 405.651 183.532 405.479 183.728C405.31 183.924 405.225 184.21 405.225 184.588V193H404.052ZM411.368 193.159C410.678 193.159 410.073 192.995 409.553 192.667C409.036 192.339 408.632 191.88 408.34 191.29C408.051 190.7 407.907 190.01 407.907 189.222C407.907 188.426 408.051 187.732 408.34 187.138C408.632 186.545 409.036 186.085 409.553 185.756C410.073 185.428 410.678 185.264 411.368 185.264C412.057 185.264 412.66 185.428 413.177 185.756C413.698 186.085 414.102 186.545 414.39 187.138C414.682 187.732 414.828 188.426 414.828 189.222C414.828 190.01 414.682 190.7 414.39 191.29C414.102 191.88 413.698 192.339 413.177 192.667C412.66 192.995 412.057 193.159 411.368 193.159ZM411.368 192.105C411.891 192.105 412.322 191.971 412.66 191.702C412.998 191.434 413.248 191.081 413.411 190.643C413.573 190.206 413.654 189.732 413.654 189.222C413.654 188.711 413.573 188.236 413.411 187.795C413.248 187.354 412.998 186.998 412.66 186.726C412.322 186.454 411.891 186.318 411.368 186.318C410.844 186.318 410.413 186.454 410.075 186.726C409.737 186.998 409.487 187.354 409.324 187.795C409.162 188.236 409.081 188.711 409.081 189.222C409.081 189.732 409.162 190.206 409.324 190.643C409.487 191.081 409.737 191.434 410.075 191.702C410.413 191.971 410.844 192.105 411.368 192.105ZM416.619 193V185.364H417.752V186.517H417.832C417.971 186.139 418.223 185.833 418.588 185.597C418.952 185.362 419.363 185.244 419.82 185.244C419.907 185.244 420.014 185.246 420.144 185.249C420.273 185.253 420.371 185.258 420.437 185.264V186.457C420.397 186.447 420.306 186.433 420.164 186.413C420.024 186.389 419.877 186.378 419.721 186.378C419.35 186.378 419.018 186.456 418.727 186.612C418.438 186.764 418.21 186.976 418.041 187.248C417.875 187.516 417.792 187.823 417.792 188.168V193H416.619ZM425.924 193V182.818H432.069V183.912H427.157V187.352H431.751V188.446H427.157V191.906H432.149V193H425.924ZM442.365 182.818V193H441.172L435.624 185.006H435.525V193H434.292V182.818H435.485L441.053 190.832H441.152V182.818H442.365ZM450.401 185.364C450.341 184.86 450.099 184.469 449.675 184.19C449.251 183.912 448.73 183.773 448.114 183.773C447.663 183.773 447.269 183.846 446.931 183.991C446.596 184.137 446.334 184.338 446.145 184.593C445.959 184.848 445.867 185.138 445.867 185.463C445.867 185.735 445.931 185.969 446.061 186.164C446.193 186.356 446.362 186.517 446.568 186.646C446.773 186.772 446.989 186.877 447.214 186.96C447.439 187.039 447.646 187.104 447.835 187.153L448.869 187.432C449.135 187.501 449.43 187.598 449.754 187.72C450.083 187.843 450.396 188.01 450.694 188.222C450.996 188.431 451.244 188.7 451.44 189.028C451.635 189.356 451.733 189.759 451.733 190.236C451.733 190.786 451.589 191.283 451.301 191.727C451.016 192.171 450.598 192.524 450.048 192.786C449.501 193.048 448.836 193.179 448.054 193.179C447.325 193.179 446.694 193.061 446.16 192.826C445.63 192.591 445.212 192.263 444.907 191.842C444.606 191.421 444.435 190.932 444.395 190.375H445.668C445.701 190.759 445.83 191.078 446.056 191.33C446.284 191.578 446.573 191.764 446.921 191.886C447.272 192.006 447.65 192.065 448.054 192.065C448.525 192.065 448.947 191.989 449.322 191.837C449.696 191.681 449.993 191.465 450.212 191.19C450.431 190.912 450.54 190.587 450.54 190.216C450.54 189.878 450.445 189.603 450.257 189.391C450.068 189.179 449.819 189.006 449.511 188.874C449.203 188.741 448.869 188.625 448.512 188.526L447.259 188.168C446.463 187.939 445.834 187.612 445.369 187.188C444.905 186.764 444.673 186.209 444.673 185.523C444.673 184.953 444.828 184.455 445.136 184.031C445.447 183.604 445.865 183.272 446.389 183.037C446.916 182.798 447.504 182.679 448.154 182.679C448.81 182.679 449.393 182.797 449.904 183.032C450.414 183.264 450.818 183.582 451.117 183.987C451.418 184.391 451.577 184.85 451.594 185.364H450.401ZM459.846 185.364L457.022 193H455.828L453.005 185.364H454.277L456.385 191.449H456.465L458.573 185.364H459.846ZM461.374 193V192.105L464.735 188.426C465.129 187.995 465.454 187.621 465.71 187.303C465.965 186.981 466.154 186.679 466.276 186.398C466.402 186.113 466.465 185.814 466.465 185.503C466.465 185.145 466.379 184.835 466.207 184.573C466.038 184.311 465.806 184.109 465.511 183.967C465.216 183.824 464.884 183.753 464.516 183.753C464.125 183.753 463.784 183.834 463.492 183.996C463.204 184.156 462.98 184.379 462.821 184.668C462.665 184.956 462.587 185.294 462.587 185.682H461.414C461.414 185.085 461.552 184.562 461.827 184.111C462.102 183.66 462.476 183.309 462.95 183.057C463.428 182.805 463.963 182.679 464.556 182.679C465.153 182.679 465.681 182.805 466.142 183.057C466.603 183.309 466.964 183.648 467.226 184.076C467.488 184.504 467.619 184.979 467.619 185.503C467.619 185.877 467.551 186.244 467.415 186.602C467.282 186.956 467.05 187.352 466.719 187.79C466.391 188.224 465.935 188.754 465.352 189.381L463.065 191.827V191.906H467.798V193H461.374Z"
          fill="#6B7280"/>
    <defs>
        <filter id="filter0_i_255_845" x="250" y="75" width="140" height="60" filterUnits="userSpaceOnUse"
                color-interpolation-filters="sRGB">
            <feFlood flood-opacity="0" result="BackgroundImageFix"/>
            <feBlend mode="normal" in="SourceGraphic" in2="BackgroundImageFix" result="shape"/>
            <feColorMatrix in="SourceAlpha" type="matrix" values="0 0 0 0 0 0 0 0 0 0 0 0 0 0 0 0 0 0 127 0"
                           result="hardAlpha"/>
            <feOffset/>
            <feGaussianBlur stdDeviation="10"/>
            <feComposite in2="hardAlpha" operator="arithmetic" k2="-1" k3="1"/>
            <feColorMatrix type="matrix" values="0 0 0 0 1 0 0 0 0 1 0 0 0 0 1 0 0 0 0.25 0"/>
            <feBlend mode="normal" in2="shape" result="effect1_innerShadow_255_845"/>
        </filter>
        <linearGradient id="paint0_linear_255_845" x1="231.991" y1="113" x2="482.286" y2="113"
                        gradientUnits="userSpaceOnUse">
            <stop stop-color="#FBA600"/>
            <stop offset="0.322917" stop-color="#F112D9"/>
            <stop offset="0.708333" stop-color="#4C3FA0"/>
            <stop offset="0.958333" stop-color="#2ED3C6"/>
        </linearGradient>
        <radialGradient id="paint1_radial_255_845" cx="0" cy="0" r="1" gradientUnits="userSpaceOnUse"
                        gradientTransform="translate(317.143 113) scale(165.143 66)">
            <stop stop-color="white" stop-opacity="0"/>
            <stop offset="1" stop-color="white"/>
        </radialGradient>
        <linearGradient id="paint2_linear_255_845" x1="320" y1="233" x2="320" y2="293" gradientUnits="userSpaceOnUse">
            <stop stop-color="white"/>
            <stop offset="1" stop-color="#F9F9F9"/>
        </linearGradient>
        <linearGradient id="paint3_linear_255_845" x1="250" y1="263" x2="390" y2="263" gradientUnits="userSpaceOnUse">
            <stop stop-color="#EA3085"/>
            <stop offset="0.13" stop-color="#F1A609"/>
            <stop offset="0.275" stop-color="#FADE01"/>
            <stop offset="0.43" stop-color="#70EA66"/>
            <stop offset="0.595" stop-color="#21FDFB"/>
            <stop offset="0.785" stop-color="#1510FE"/>
            <stop offset="0.97" stop-color="#CA01FD"/>
        </linearGradient>
        <linearGradient id="paint4_linear_255_845" x1="132" y1="233" x2="132" y2="293" gradientUnits="userSpaceOnUse">
            <stop stop-color="white"/>
            <stop offset="1" stop-color="#F9F9F9"/>
        </linearGradient>
        <linearGradient id="paint5_linear_255_845" x1="320" y1="75" x2="320" y2="135" gradientUnits="userSpaceOnUse">
            <stop stop-color="#303030"/>
            <stop offset="1"/>
        </linearGradient>
        <linearGradient id="paint6_linear_255_845" x1="508" y1="233" x2="508" y2="293" gradientUnits="userSpaceOnUse">
            <stop stop-color="white"/>
            <stop offset="1" stop-color="#F9F9F9"/>
        </linearGradient>
        <linearGradient id="paint7_linear_255_845" x1="189" y1="105" x2="189" y2="221" gradientUnits="userSpaceOnUse">
            <stop/>
            <stop offset="1" stop-opacity="0"/>
        </linearGradient>
        <linearGradient id="paint8_linear_255_845" x1="274" y1="144" x2="274" y2="206" gradientUnits="userSpaceOnUse">
            <stop/>
            <stop offset="1" stop-opacity="0"/>
        </linearGradient>
        <linearGradient id="paint9_linear_255_845" x1="451" y1="105" x2="451" y2="221" gradientUnits="userSpaceOnUse">
            <stop/>
            <stop offset="1" stop-opacity="0"/>
        </linearGradient>
    </defs>
</svg>
