<svg width="340" height="340" viewBox="0 0 340 340" fill="none" xmlns="http://www.w3.org/2000/svg">
<g filter="url(#filter0_i_313_833)">
<rect width="340" height="340" rx="24" fill="white"/>
<rect x="0.5" y="0.5" width="339" height="339" rx="23.5" stroke="#EAEAEA"/>
<path d="M292.83 287.628V296.142H288.745V276.506H292.715V284.013H292.887C293.22 283.144 293.757 282.463 294.498 281.971C295.24 281.472 296.17 281.223 297.288 281.223C298.311 281.223 299.203 281.447 299.963 281.894C300.73 282.335 301.325 282.971 301.747 283.802C302.175 284.627 302.386 285.615 302.38 286.765V296.142H298.295V287.494C298.301 286.586 298.071 285.88 297.605 285.375C297.145 284.87 296.499 284.617 295.668 284.617C295.112 284.617 294.62 284.736 294.191 284.972C293.77 285.209 293.437 285.554 293.194 286.008C292.958 286.455 292.836 286.995 292.83 287.628Z" fill="#EF4444"/>
<path d="M285.768 281.415V284.483H276.899V281.415H285.768ZM278.913 277.887H282.997V291.617C282.997 291.994 283.055 292.288 283.17 292.499C283.285 292.703 283.445 292.847 283.649 292.93C283.86 293.013 284.103 293.055 284.378 293.055C284.57 293.055 284.762 293.039 284.953 293.007C285.145 292.969 285.292 292.94 285.394 292.921L286.037 295.96C285.832 296.024 285.545 296.098 285.174 296.181C284.803 296.27 284.352 296.325 283.822 296.344C282.838 296.382 281.975 296.251 281.233 295.951C280.498 295.65 279.926 295.184 279.517 294.551C279.108 293.918 278.906 293.119 278.913 292.154V277.887Z" fill="#EF4444"/>
<path d="M268.51 296.43C266.995 296.43 265.691 296.123 264.598 295.509C263.511 294.889 262.674 294.014 262.086 292.882C261.498 291.744 261.204 290.399 261.204 288.846C261.204 287.331 261.498 286.001 262.086 284.857C262.674 283.713 263.502 282.821 264.569 282.182C265.643 281.543 266.902 281.223 268.347 281.223C269.318 281.223 270.223 281.38 271.06 281.693C271.904 282 272.639 282.463 273.265 283.083C273.898 283.703 274.39 284.483 274.742 285.423C275.094 286.356 275.269 287.449 275.269 288.702V289.824H262.834V287.292H271.425C271.425 286.704 271.297 286.183 271.041 285.73C270.785 285.276 270.431 284.921 269.977 284.665C269.529 284.403 269.008 284.272 268.414 284.272C267.794 284.272 267.244 284.416 266.765 284.704C266.292 284.985 265.921 285.365 265.653 285.845C265.384 286.318 265.247 286.845 265.24 287.427V289.833C265.24 290.562 265.374 291.192 265.643 291.722C265.918 292.253 266.305 292.662 266.803 292.949C267.302 293.237 267.893 293.381 268.577 293.381C269.031 293.381 269.446 293.317 269.823 293.189C270.2 293.061 270.523 292.869 270.792 292.614C271.06 292.358 271.265 292.045 271.405 291.674L275.183 291.923C274.991 292.831 274.598 293.624 274.004 294.301C273.416 294.972 272.655 295.497 271.722 295.874C270.795 296.244 269.724 296.43 268.51 296.43Z" fill="#EF4444"/>
<path d="M256.144 296.392C255.511 296.392 254.967 296.168 254.514 295.721C254.066 295.267 253.842 294.723 253.842 294.091C253.842 293.464 254.066 292.927 254.514 292.48C254.967 292.032 255.511 291.809 256.144 291.809C256.757 291.809 257.294 292.032 257.754 292.48C258.215 292.927 258.445 293.464 258.445 294.091C258.445 294.512 258.336 294.899 258.119 295.251C257.908 295.596 257.63 295.874 257.285 296.085C256.939 296.289 256.559 296.392 256.144 296.392Z" fill="#EF4444"/>
<path d="M241.38 301.665C240.863 301.665 240.377 301.623 239.923 301.54C239.475 301.464 239.105 301.365 238.811 301.243L239.731 298.194C240.211 298.341 240.642 298.421 241.026 298.434C241.415 298.447 241.751 298.357 242.032 298.165C242.32 297.974 242.553 297.648 242.732 297.187L242.972 296.564L237.689 281.415H241.984L245.033 292.23H245.187L248.265 281.415H252.589L246.865 297.734C246.59 298.527 246.216 299.217 245.743 299.805C245.276 300.399 244.685 300.856 243.969 301.176C243.253 301.502 242.39 301.665 241.38 301.665Z" fill="#EF4444"/>
<path d="M226.675 287.628V296.142H222.59V281.415H226.483V284.013H226.655C226.981 283.157 227.528 282.479 228.295 281.981C229.062 281.476 229.992 281.223 231.085 281.223C232.108 281.223 233 281.447 233.76 281.894C234.521 282.342 235.112 282.981 235.534 283.812C235.956 284.636 236.167 285.621 236.167 286.765V296.142H232.082V287.494C232.089 286.592 231.859 285.889 231.392 285.384C230.925 284.873 230.283 284.617 229.465 284.617C228.915 284.617 228.429 284.736 228.007 284.972C227.592 285.209 227.266 285.554 227.029 286.008C226.799 286.455 226.681 286.995 226.675 287.628Z" fill="#EF4444"/>
<path d="M211.128 296.42C210.188 296.42 209.351 296.257 208.616 295.931C207.88 295.599 207.299 295.11 206.87 294.464C206.449 293.812 206.238 293 206.238 292.029C206.238 291.211 206.388 290.524 206.688 289.967C206.989 289.411 207.398 288.964 207.916 288.625C208.433 288.286 209.021 288.031 209.68 287.858C210.345 287.686 211.041 287.564 211.77 287.494C212.627 287.404 213.317 287.321 213.841 287.244C214.365 287.161 214.745 287.04 214.982 286.88C215.218 286.72 215.337 286.484 215.337 286.171V286.113C215.337 285.506 215.145 285.036 214.761 284.704C214.384 284.371 213.847 284.205 213.151 284.205C212.416 284.205 211.831 284.368 211.396 284.694C210.961 285.014 210.674 285.416 210.533 285.902L206.755 285.595C206.947 284.7 207.324 283.927 207.887 283.275C208.449 282.617 209.175 282.112 210.063 281.76C210.958 281.402 211.994 281.223 213.17 281.223C213.988 281.223 214.771 281.319 215.519 281.511C216.273 281.703 216.941 282 217.523 282.402C218.111 282.805 218.574 283.323 218.913 283.956C219.252 284.582 219.421 285.333 219.421 286.209V296.142H215.548V294.1H215.433C215.196 294.56 214.88 294.966 214.483 295.318C214.087 295.663 213.611 295.934 213.055 296.133C212.499 296.324 211.856 296.42 211.128 296.42ZM212.297 293.601C212.898 293.601 213.429 293.483 213.889 293.247C214.349 293.004 214.71 292.678 214.972 292.269C215.234 291.86 215.366 291.396 215.366 290.878V289.315C215.238 289.399 215.062 289.475 214.838 289.546C214.621 289.61 214.375 289.67 214.1 289.728C213.825 289.779 213.55 289.827 213.275 289.872C213 289.91 212.751 289.945 212.527 289.977C212.048 290.047 211.629 290.159 211.271 290.313C210.913 290.466 210.635 290.674 210.437 290.936C210.239 291.192 210.14 291.511 210.14 291.895C210.14 292.451 210.341 292.876 210.744 293.17C211.153 293.458 211.671 293.601 212.297 293.601Z" fill="#EF4444"/>
<path d="M201.273 296.392C200.641 296.392 200.097 296.168 199.643 295.721C199.196 295.267 198.972 294.723 198.972 294.091C198.972 293.464 199.196 292.927 199.643 292.48C200.097 292.032 200.641 291.809 201.273 291.809C201.887 291.809 202.424 292.032 202.884 292.48C203.344 292.927 203.575 293.464 203.575 294.091C203.575 294.512 203.466 294.899 203.249 295.251C203.038 295.596 202.76 295.874 202.414 296.085C202.069 296.289 201.689 296.392 201.273 296.392Z" fill="#EF4444"/>
<path d="M194.396 276.142V300.409H186.831V297.35H190.446V279.191H186.831V276.142H194.396Z" fill="#EF4444"/>
<path d="M185.343 281.415V284.483H176.253V281.415H185.343ZM178.334 296.142V280.351C178.334 279.283 178.542 278.398 178.957 277.695C179.379 276.992 179.954 276.464 180.683 276.113C181.412 275.761 182.24 275.585 183.166 275.585C183.793 275.585 184.365 275.633 184.883 275.729C185.407 275.825 185.797 275.911 186.052 275.988L185.324 279.056C185.164 279.005 184.966 278.957 184.729 278.913C184.499 278.868 184.263 278.845 184.02 278.845C183.419 278.845 183 278.986 182.764 279.267C182.527 279.542 182.409 279.929 182.409 280.427V296.142H178.334Z" fill="#EF4444"/>
<path d="M162.104 296.142L170.244 280.034V279.9H160.761V276.506H174.539V279.948L166.39 296.142H162.104Z" fill="#EF4444"/>
<path d="M151.097 296.411C149.742 296.411 148.533 296.161 147.472 295.663C146.418 295.164 145.58 294.477 144.96 293.601C144.34 292.726 144.017 291.722 143.992 290.591H148.019C148.064 291.351 148.383 291.968 148.978 292.441C149.572 292.914 150.278 293.151 151.097 293.151C151.749 293.151 152.324 293.007 152.822 292.719C153.327 292.425 153.721 292.019 154.002 291.502C154.289 290.977 154.433 290.377 154.433 289.699C154.433 289.009 154.286 288.401 153.992 287.877C153.705 287.353 153.305 286.944 152.794 286.65C152.282 286.356 151.697 286.206 151.039 286.199C150.464 286.199 149.905 286.318 149.361 286.554C148.824 286.791 148.406 287.113 148.105 287.523L144.414 286.861L145.344 276.506H157.348V279.9H148.767L148.259 284.819H148.374C148.719 284.333 149.24 283.93 149.936 283.611C150.633 283.291 151.413 283.131 152.276 283.131C153.458 283.131 154.513 283.409 155.44 283.965C156.367 284.521 157.099 285.285 157.636 286.257C158.173 287.222 158.438 288.334 158.432 289.594C158.438 290.917 158.131 292.093 157.511 293.122C156.897 294.145 156.038 294.95 154.932 295.538C153.832 296.12 152.554 296.411 151.097 296.411Z" fill="#EF4444"/>
<path d="M128.908 296.142L137.048 280.034V279.9H127.565V276.506H141.343V279.948L133.193 296.142H128.908Z" fill="#EF4444"/>
<path d="M123.793 296.392C123.16 296.392 122.617 296.168 122.163 295.721C121.716 295.267 121.492 294.723 121.492 294.091C121.492 293.464 121.716 292.927 122.163 292.48C122.617 292.032 123.16 291.809 123.793 291.809C124.407 291.809 124.944 292.032 125.404 292.48C125.864 292.927 126.094 293.464 126.094 294.091C126.094 294.512 125.985 294.899 125.768 295.251C125.557 295.596 125.279 295.874 124.934 296.085C124.589 296.289 124.208 296.392 123.793 296.392Z" fill="#EF4444"/>
<path d="M116.291 296.392C115.658 296.392 115.115 296.168 114.661 295.721C114.213 295.267 113.99 294.723 113.99 294.091C113.99 293.464 114.213 292.927 114.661 292.48C115.115 292.032 115.658 291.809 116.291 291.809C116.905 291.809 117.441 292.032 117.902 292.48C118.362 292.927 118.592 293.464 118.592 294.091C118.592 294.512 118.483 294.899 118.266 295.251C118.055 295.596 117.777 295.874 117.432 296.085C117.087 296.289 116.706 296.392 116.291 296.392Z" fill="#EF4444"/>
<path d="M108.789 296.392C108.156 296.392 107.613 296.168 107.159 295.721C106.712 295.267 106.488 294.723 106.488 294.091C106.488 293.464 106.712 292.927 107.159 292.48C107.613 292.032 108.156 291.809 108.789 291.809C109.403 291.809 109.939 292.032 110.4 292.48C110.86 292.927 111.09 293.464 111.09 294.091C111.09 294.512 110.981 294.899 110.764 295.251C110.553 295.596 110.275 295.874 109.93 296.085C109.585 296.289 109.204 296.392 108.789 296.392Z" fill="#EF4444"/>
<path d="M94.4572 296.142L102.597 280.034V279.9H93.1149V276.506H106.893V279.948L98.7431 296.142H94.4572Z" fill="#EF4444"/>
<path d="M89.0135 276.506V296.142H84.8619V280.447H84.7468L80.25 283.265V279.584L85.1112 276.506H89.0135Z" fill="#EF4444"/>
<path d="M63.4637 296.143V293.151L70.4534 286.679C71.0479 286.104 71.5465 285.586 71.9492 285.126C72.3583 284.666 72.6683 284.215 72.8792 283.774C73.0902 283.327 73.1956 282.844 73.1956 282.326C73.1956 281.751 73.0646 281.256 72.8025 280.84C72.5404 280.418 72.1825 280.095 71.7286 279.872C71.2748 279.642 70.7603 279.527 70.185 279.527C69.5841 279.527 69.06 279.648 68.6125 279.891C68.1651 280.134 67.8199 280.482 67.577 280.936C67.3341 281.39 67.2127 281.93 67.2127 282.556H63.272C63.272 281.272 63.5628 280.156 64.1445 279.21C64.7262 278.264 65.5411 277.532 66.5894 277.014C67.6377 276.497 68.8458 276.238 70.2137 276.238C71.62 276.238 72.8441 276.487 73.886 276.986C74.9343 277.478 75.7492 278.162 76.3309 279.038C76.9126 279.913 77.2034 280.917 77.2034 282.048C77.2034 282.79 77.0564 283.522 76.7624 284.244C76.4747 284.966 75.9602 285.768 75.2187 286.65C74.4772 287.526 73.4321 288.578 72.0834 289.805L69.2166 292.614V292.748H77.4623V296.143H63.4637Z" fill="#EF4444"/>
<path d="M52.7443 276.237C53.7542 276.237 54.7258 276.407 55.659 276.746C56.5987 277.084 57.436 277.624 58.1711 278.366C58.9126 279.107 59.4975 280.092 59.9257 281.319C60.3604 282.54 60.5809 284.039 60.5873 285.816C60.5873 287.484 60.3987 288.974 60.0216 290.284C59.6509 291.588 59.1171 292.697 58.4204 293.611C57.7237 294.525 56.8831 295.222 55.8987 295.701C54.9144 296.174 53.8149 296.411 52.6005 296.411C51.2901 296.411 50.1331 296.158 49.1296 295.653C48.126 295.142 47.3174 294.448 46.7038 293.573C46.0965 292.691 45.729 291.7 45.6012 290.6H49.6953C49.8551 291.316 50.1907 291.872 50.702 292.269C51.2134 292.659 51.8462 292.854 52.6005 292.854C53.8789 292.854 54.8505 292.297 55.5152 291.185C56.18 290.067 56.5156 288.536 56.522 286.593H56.3877C56.0937 287.168 55.6974 287.663 55.1988 288.079C54.7002 288.488 54.1282 288.804 53.4826 289.028C52.8434 289.252 52.1626 289.363 51.4403 289.363C50.2833 289.363 49.251 289.092 48.3433 288.548C47.4357 288.005 46.7198 287.257 46.1956 286.305C45.6715 285.352 45.4094 284.266 45.4094 283.045C45.403 281.728 45.7066 280.555 46.3203 279.526C46.9339 278.497 47.7904 277.692 48.8899 277.11C49.9957 276.522 51.2805 276.231 52.7443 276.237ZM52.773 279.497C52.1274 279.497 51.5522 279.651 51.0472 279.958C50.5486 280.264 50.1523 280.677 49.8583 281.194C49.5706 281.712 49.43 282.291 49.4364 282.93C49.4364 283.575 49.577 284.157 49.8583 284.675C50.1459 285.186 50.5358 285.595 51.028 285.902C51.5266 286.203 52.0955 286.353 52.7347 286.353C53.2141 286.353 53.6583 286.263 54.0674 286.084C54.4765 285.905 54.8313 285.659 55.1317 285.346C55.4385 285.026 55.6782 284.659 55.8508 284.243C56.0234 283.828 56.1097 283.387 56.1097 282.92C56.1033 282.3 55.9563 281.731 55.6686 281.214C55.381 280.696 54.9847 280.28 54.4797 279.967C53.9747 279.654 53.4058 279.497 52.773 279.497Z" fill="#EF4444"/>
<path d="M35.8573 298.463V274.195H43.4223V277.244H39.8076V295.404H43.4223V298.463H35.8573Z" fill="#EF4444"/>
<g opacity="0.5">
<path d="M45.0072 52.4273C45.6047 51.3442 46.4465 50.3965 47.4785 49.7195L64.8316 37.6431L47.044 66.9678C47.044 66.9678 45.496 64.3413 44.8714 63.0145C43.3507 59.6298 43.405 55.7578 45.0072 52.4273ZM37.8379 72.654C38.2452 78.3402 41.0695 83.5661 45.6047 87.0049L64.8044 100.354C64.8044 100.354 52.8012 83.0787 42.6446 65.9117C41.6126 64.0976 40.9337 62.1209 40.6078 60.063C40.472 59.1424 40.472 58.1947 40.6078 57.247C40.3363 57.7344 39.8203 58.7363 39.8203 58.7363C38.7883 60.8212 38.0823 63.0686 37.7564 65.3702C37.5934 67.7801 37.5934 70.2441 37.8379 72.654ZM86.8013 74.9826C86.1767 73.6558 84.6288 71.0293 84.6288 71.0293L66.8683 100.354L84.2214 88.2776C85.2534 87.6006 86.0953 86.6529 86.6927 85.5698C88.2949 82.2393 88.3493 78.3673 86.8013 74.9826V74.9826ZM93.8621 65.3431C93.4547 59.6569 90.6304 54.431 86.0953 50.9922L66.9226 37.6431C66.9226 37.6431 78.9259 54.9184 89.0825 72.0854C90.1144 73.8995 90.7934 75.8762 91.1192 77.934C91.255 78.8547 91.255 79.8024 91.1192 80.7501C91.3908 80.2627 91.9068 79.2608 91.9068 79.2608C92.9387 77.1759 93.6448 74.9285 93.9707 72.6269C94.1608 70.1899 94.1608 67.753 93.9164 65.316L93.8621 65.3431Z" fill="#EF4444"/>
</g>
</g>
<defs>
<filter id="filter0_i_313_833" x="0" y="-2.42857" width="340" height="342.429" filterUnits="userSpaceOnUse" color-interpolation-filters="sRGB">
<feFlood flood-opacity="0" result="BackgroundImageFix"/>
<feBlend mode="normal" in="SourceGraphic" in2="BackgroundImageFix" result="shape"/>
<feColorMatrix in="SourceAlpha" type="matrix" values="0 0 0 0 0 0 0 0 0 0 0 0 0 0 0 0 0 0 127 0" result="hardAlpha"/>
<feOffset dy="-2.42857"/>
<feGaussianBlur stdDeviation="9.71428"/>
<feComposite in2="hardAlpha" operator="arithmetic" k2="-1" k3="1"/>
<feColorMatrix type="matrix" values="0 0 0 0 1 0 0 0 0 1 0 0 0 0 1 0 0 0 0.2 0"/>
<feBlend mode="normal" in2="shape" result="effect1_innerShadow_313_833"/>
</filter>
</defs>
</svg>
