<svg width="500" height="200" viewBox="0 0 500 200" fill="none" xmlns="http://www.w3.org/2000/svg">
<path d="M249.567 21C263.41 21 275.314 24.3397 285.278 31.0186C295.297 37.6975 302.999 47.3931 308.385 60.1045C313.771 72.762 316.438 88.1126 316.384 106.156C316.384 124.308 313.69 139.82 308.304 152.693C302.971 165.566 295.323 175.397 285.358 182.184C275.394 188.97 263.464 192.363 249.567 192.363C235.671 192.309 223.713 188.889 213.694 182.103C203.73 175.316 196.055 165.485 190.669 152.612C185.337 139.739 182.697 124.254 182.751 106.156C182.751 88.1125 185.417 72.7349 190.749 60.0234C196.135 47.312 203.811 37.6436 213.775 31.0186C223.794 24.3396 235.725 21 249.567 21ZM140.868 23.2617V131.605H161.391V159.642H140.868V188.727H107.42V159.642H28V132.091L97.0781 23.2617H140.868ZM451.702 131.605H472.225V159.642H451.702V188.727H418.254V159.642H338.834V132.091L407.912 23.2617H451.702V131.605ZM249.567 49.6816C240.142 49.6816 232.601 54.3947 226.945 63.8203C221.29 73.2462 218.435 87.3584 218.381 106.156C218.381 118.868 219.646 129.479 222.178 137.989C224.763 146.446 228.399 152.802 233.085 157.057C237.771 161.258 243.265 163.358 249.567 163.358C259.047 163.358 266.615 158.591 272.271 149.058C277.926 139.524 280.727 125.223 280.673 106.156C280.673 93.6065 279.38 83.1572 276.795 74.8086C274.263 66.4599 270.654 60.1847 265.968 55.9834C261.336 51.7824 255.869 49.6817 249.567 49.6816ZM106.773 61.3965L63.2256 130.313V131.605H108.066V61.3965H106.773ZM374.06 130.313V131.605H418.9V61.3965H417.607L374.06 130.313Z" fill="url(#paint0_linear_2379_1753)"/>
<defs>
<linearGradient id="paint0_linear_2379_1753" x1="250.112" y1="21" x2="250.112" y2="192.363" gradientUnits="userSpaceOnUse">
<stop stop-color="#4F4F4F"/>
<stop offset="1"/>
</linearGradient>
</defs>
</svg>
