<svg width="510" height="320" viewBox="-15 0 510 320" fill="none" xmlns="http://www.w3.org/2000/svg">
<circle cx="231.5" cy="160.5" r="212" stroke="#E5E7EB"/>
<circle cx="231.5" cy="160.5" r="137" stroke="#E5E7EB"/>
<circle cx="231.5" cy="160.5" r="63" stroke="#E5E7EB"/>
<g filter="url(#filter0_d_2118_278)">
<path d="M345.985 229.332L363.986 276.825C363.986 276.825 366.236 281.268 368.646 281.268C371.056 281.268 406.899 245.724 406.899 245.724L446.757 172.338L346.628 217.072L345.985 229.332Z" fill="#E7ECF1"/>
<path d="M369.852 241.512L366.397 276.518C366.397 276.518 364.95 287.245 376.2 276.518C387.45 265.792 398.219 257.52 398.219 257.52" fill="#D1D7DE"/>
<path d="M346.31 231.026L309.283 219.526C309.283 219.526 304.858 217.815 306.283 213.934C306.576 213.134 307.168 212.453 308.938 211.282C317.142 205.831 460.793 156.614 460.793 156.614C460.793 156.614 464.849 155.311 467.241 156.178C467.833 156.352 468.365 156.673 468.784 157.109C469.203 157.544 469.493 158.077 469.624 158.654C469.883 159.673 469.991 160.722 469.945 161.77C469.934 162.676 469.819 163.516 469.732 164.833C468.857 178.29 442.675 278.718 442.675 278.718C442.675 278.718 441.108 284.595 435.496 284.796C434.117 284.838 432.742 284.616 431.455 284.141C430.168 283.666 428.995 282.95 428.005 282.034C416.991 273.003 378.924 248.616 370.512 243.253C370.323 243.13 370.163 242.969 370.044 242.782C369.925 242.595 369.849 242.386 369.822 242.169C369.705 241.603 370.349 240.903 370.349 240.903C370.349 240.903 436.634 184.74 438.397 178.844C438.534 178.387 438.018 178.162 437.325 178.362C432.923 179.906 356.605 225.848 348.182 230.918C347.575 231.093 346.935 231.13 346.31 231.026Z" fill="white"/>
</g>
<g filter="url(#filter1_d_2118_278)">
<path d="M271.302 71.8759L280.99 91.9809C280.99 91.9809 282.145 93.8404 283.2 93.7486C284.255 93.6569 298.591 76.7318 298.591 76.7318L313.245 43.0883L271.116 66.4847L271.302 71.8759Z" fill="#E7ECF1"/>
<path d="M282.213 76.2988L282.034 91.7551C282.034 91.7551 281.809 96.5058 286.326 91.3817C290.842 86.2576 295.241 82.2265 295.241 82.2265" fill="#D1D7DE"/>
<path d="M271.508 72.6053L254.861 68.9812C254.861 68.9812 252.859 68.4005 253.335 66.6474C253.433 66.2859 253.666 65.9653 254.396 65.3856C257.78 62.6868 318.79 35.6702 318.79 35.6702C318.79 35.6702 320.516 34.9453 321.597 35.2336C321.862 35.2875 322.108 35.4079 322.307 35.5824C322.507 35.757 322.655 35.9794 322.734 36.227C322.886 36.6634 322.973 37.1183 322.993 37.5786C323.023 37.9758 323.005 38.3479 323.017 38.9279C323.146 44.8519 315.509 89.8128 315.509 89.8128C315.509 89.8128 315.047 92.445 312.598 92.7469C311.996 92.818 311.386 92.7729 310.805 92.6141C310.223 92.4554 309.682 92.1863 309.214 91.823C304.048 88.2891 286.455 79.0635 282.569 77.036C282.481 76.9893 282.405 76.9251 282.346 76.8477C282.286 76.7704 282.245 76.6816 282.225 76.5875C282.152 76.3445 282.408 76.0134 282.408 76.0134C282.408 76.0134 309.286 48.9028 309.833 46.2547C309.876 46.0495 309.641 45.9705 309.346 46.0845C307.477 46.928 275.818 69.9462 272.323 72.4866C272.065 72.5862 271.786 72.6269 271.508 72.6053Z" fill="white"/>
</g>
<g filter="url(#filter2_d_2118_278)">
<path d="M128.701 149.754L121.821 179.847C121.821 179.847 121.464 182.853 122.684 183.665C123.903 184.476 154.007 178.555 154.007 178.555L198.883 154.838L133.153 143.766L128.701 149.754Z" fill="#E7ECF1"/>
<path d="M136.678 163.952L123.144 180.504C123.144 180.504 118.801 185.445 128.106 183.804C137.41 182.163 145.643 181.603 145.643 181.603" fill="#D1D7DE"/>
<path d="M128.295 150.721L113.429 132.436C113.429 132.436 111.766 130.08 113.793 128.596C114.211 128.289 114.74 128.144 116.03 128.148C122.017 128.151 211.279 151.606 211.279 151.606C211.279 151.606 213.77 152.312 214.689 153.556C214.93 153.843 215.091 154.185 215.156 154.546C215.222 154.907 215.189 155.275 215.061 155.611C214.849 156.214 214.55 156.781 214.175 157.296C213.864 157.751 213.523 158.137 213.035 158.774C208.062 165.289 161.004 207.296 161.004 207.296C161.004 207.296 158.233 209.742 155.325 207.955C154.613 207.512 153.992 206.937 153.501 206.263C153.009 205.59 152.657 204.832 152.464 204.035C149.931 195.757 138.877 170.601 136.426 165.056C136.371 164.929 136.345 164.794 136.347 164.659C136.35 164.525 136.382 164.393 136.442 164.274C136.573 163.949 137.135 163.811 137.135 163.811C137.135 163.811 189.585 157.705 192.462 155.315C192.685 155.13 192.5 154.843 192.082 154.711C189.334 154.01 135.248 151.565 129.278 151.296C128.913 151.18 128.576 150.983 128.295 150.721Z" fill="white"/>
</g>
<rect x="213.4" y="242.4" width="37.2" height="37.2" rx="3.17143" fill="#528BFF" stroke="black" stroke-width="2.8"/>
<path d="M224.985 253.68L224.992 253.676L224.998 253.671L230.033 250.162L224.516 259.285C224.362 259.007 224.21 258.722 224.115 258.522C223.553 257.264 223.563 255.83 224.149 254.596C224.357 254.223 224.644 253.905 224.985 253.68Z" fill="url(#paint0_linear_2118_278)" stroke="white" stroke-width="1.14286"/>
<path d="M221.223 262.75L221.223 262.741L221.222 262.733C221.125 261.77 221.123 260.78 221.188 259.805C221.247 259.392 221.338 258.983 221.458 258.583C221.625 259.163 221.859 259.723 222.16 260.254L222.16 260.254L222.165 260.262C224.288 263.862 226.603 267.47 228.386 270.177C228.861 270.899 229.299 271.557 229.686 272.134L224.227 268.328C222.474 266.99 221.381 264.96 221.223 262.75Z" fill="white" stroke="white" stroke-width="1.14286"/>
<path d="M239.673 268.844L239.667 268.849L239.66 268.853L234.639 272.358L240.154 263.239C240.308 263.518 240.461 263.803 240.555 264.003C241.116 265.248 241.107 266.682 240.51 267.927C240.302 268.301 240.015 268.62 239.673 268.844Z" fill="url(#paint1_linear_2118_278)" stroke="white" stroke-width="1.14286"/>
<path d="M243.447 259.764L243.448 259.772L243.449 259.78C243.546 260.754 243.547 261.733 243.483 262.708C243.423 263.121 243.333 263.53 243.213 263.931C243.046 263.351 242.812 262.79 242.511 262.26L242.511 262.26L242.506 262.251C240.382 258.652 238.068 255.043 236.285 252.337C235.809 251.614 235.371 250.956 234.985 250.379L240.443 254.185C242.197 255.523 243.289 257.553 243.447 259.764Z" fill="white" stroke="white" stroke-width="1.14286"/>
<path d="M243.496 260.628L243.52 260.616C243.551 261.314 243.536 262.014 243.482 262.717C243.423 263.131 243.332 263.541 243.212 263.942C243.045 263.362 242.811 262.801 242.51 262.271L242.51 262.271L242.505 262.262C240.382 258.663 238.067 255.054 236.284 252.348C235.81 251.628 235.373 250.971 234.987 250.395L240.431 254.196C242.185 255.534 243.278 257.564 243.435 259.775L243.496 260.628ZM224.985 253.68L224.992 253.676L224.998 253.671L230.02 250.167L224.505 259.285C224.35 259.007 224.198 258.722 224.104 258.522C223.543 257.267 223.562 255.832 224.149 254.596C224.357 254.223 224.644 253.905 224.985 253.68ZM221.223 262.75L221.222 262.741L221.221 262.733C221.124 261.77 221.123 260.78 221.188 259.805C221.247 259.392 221.338 258.983 221.457 258.583C221.625 259.163 221.859 259.723 222.159 260.254L222.159 260.254L222.164 260.262C224.288 263.862 226.603 267.47 228.385 270.177C228.861 270.899 229.299 271.557 229.685 272.134L224.227 268.328C222.474 266.99 221.381 264.96 221.223 262.75ZM234.635 272.361L240.143 263.24C240.297 263.519 240.45 263.804 240.544 264.004C241.114 265.258 241.097 266.692 240.509 267.928C240.301 268.301 240.014 268.62 239.673 268.845L239.666 268.849L239.66 268.853L234.635 272.361Z" fill="white" stroke="white" stroke-width="1.14286"/>
<rect x="283.039" y="150.039" width="21.9216" height="21.9216" rx="2.35406" fill="#528BFF" stroke="black" stroke-width="2.07836"/>
<path d="M289.836 156.676L289.836 156.676L289.845 156.67L292.552 154.783L289.513 159.808C289.446 159.685 289.385 159.568 289.343 159.479C289.016 158.747 289.022 157.912 289.362 157.195C289.481 156.982 289.644 156.802 289.836 156.676Z" fill="url(#paint2_linear_2118_278)" stroke="white" stroke-width="0.84831"/>
<path d="M287.615 162.044L287.615 162.044L287.614 162.031C287.556 161.46 287.555 160.872 287.594 160.291C287.616 160.139 287.645 159.987 287.681 159.837C287.773 160.097 287.888 160.35 288.025 160.592L288.025 160.592L288.029 160.598C289.304 162.76 290.693 164.926 291.763 166.551C291.955 166.841 292.136 167.114 292.304 167.367L289.384 165.331C288.352 164.543 287.708 163.347 287.615 162.044Z" fill="white" stroke="white" stroke-width="0.84831"/>
<path d="M298.559 165.639L298.559 165.638L298.55 165.645L295.852 167.528L298.889 162.506C298.956 162.63 299.017 162.747 299.059 162.836C299.385 163.56 299.38 164.394 299.034 165.119C298.915 165.332 298.752 165.512 298.559 165.639Z" fill="url(#paint3_linear_2118_278)" stroke="white" stroke-width="0.84831"/>
<path d="M300.787 160.264L300.787 160.264L300.788 160.276C300.846 160.854 300.847 161.436 300.809 162.016C300.787 162.169 300.757 162.321 300.721 162.471C300.629 162.211 300.515 161.958 300.377 161.715L300.377 161.715L300.374 161.709C299.099 159.548 297.709 157.382 296.639 155.757C296.447 155.467 296.266 155.193 296.098 154.94L299.018 156.977C300.051 157.765 300.694 158.961 300.787 160.264Z" fill="white" stroke="white" stroke-width="0.84831"/>
<path d="M289.506 159.808C289.439 159.685 289.378 159.568 289.336 159.479C289.01 158.749 289.021 157.914 289.362 157.195C289.481 156.982 289.644 156.802 289.836 156.676L289.836 156.676L289.845 156.669L292.544 154.786L289.506 159.808ZM287.593 160.291C287.615 160.139 287.645 159.987 287.681 159.837C287.773 160.097 287.887 160.35 288.025 160.592L288.025 160.592L288.028 160.599C289.303 162.76 290.693 164.926 291.763 166.551C291.954 166.841 292.136 167.114 292.304 167.367L289.384 165.331C288.351 164.543 287.708 163.347 287.615 162.044L287.615 162.044L287.614 162.032C287.556 161.46 287.555 160.872 287.593 160.291ZM298.549 165.645L295.848 167.53L298.882 162.507C298.949 162.63 299.011 162.748 299.052 162.836C299.384 163.566 299.374 164.4 299.033 165.12C298.914 165.332 298.751 165.512 298.559 165.639L298.559 165.639L298.549 165.645ZM300.825 160.904L300.835 160.899C300.847 161.271 300.837 161.646 300.808 162.021C300.786 162.175 300.757 162.327 300.721 162.478C300.629 162.218 300.514 161.965 300.377 161.722L300.377 161.722L300.373 161.716C299.098 159.555 297.708 157.388 296.638 155.764C296.448 155.475 296.268 155.203 296.1 154.951L299.011 156.983C300.043 157.772 300.687 158.968 300.78 160.271L300.825 160.904Z" fill="white" stroke="white" stroke-width="0.84831"/>
<rect x="84.751" y="241.79" width="21.9216" height="21.9216" rx="2.35406" transform="rotate(30 84.751 241.79)" fill="#528BFF" stroke="black" stroke-width="2.07836"/>
<path d="M87.3185 250.936L87.3185 250.936L87.3298 250.935L90.6173 250.655L85.4726 253.487C85.4763 253.347 85.4818 253.215 85.4899 253.118C85.573 252.319 85.9953 251.6 86.6485 251.149C86.8577 251.024 87.0889 250.949 87.3185 250.936Z" fill="url(#paint4_linear_2118_278)" stroke="white" stroke-width="0.84831"/>
<path d="M82.7112 254.474L82.7114 254.474L82.7165 254.463C82.9521 253.94 83.2454 253.43 83.5691 252.946C83.6645 252.825 83.7657 252.708 83.8722 252.596C83.8215 252.867 83.7944 253.143 83.7922 253.422L83.7922 253.422L83.7922 253.429C83.8157 255.939 83.9362 258.51 84.0505 260.452C84.071 260.799 84.0912 261.126 84.1107 261.429L82.5999 258.206C82.0999 257.007 82.1405 255.649 82.7112 254.474Z" fill="white" stroke="white" stroke-width="0.84831"/>
<path d="M90.3919 263.059L90.3919 263.059L90.3803 263.06L87.1021 263.342L92.2437 260.512C92.24 260.652 92.2345 260.784 92.2263 260.882C92.1465 261.673 91.7253 262.392 91.0625 262.846C90.8532 262.971 90.6217 263.046 90.3919 263.059Z" fill="url(#paint5_linear_2118_278)" stroke="white" stroke-width="0.84831"/>
<path d="M95.0089 259.519L95.0087 259.519L95.0038 259.53C94.7647 260.06 94.4745 260.564 94.151 261.047C94.0556 261.169 93.9544 261.285 93.8479 261.397C93.8986 261.126 93.9257 260.85 93.9278 260.571L93.9279 260.571L93.9278 260.564C93.9043 258.055 93.7839 255.484 93.6696 253.542C93.6491 253.195 93.6288 252.867 93.6094 252.564L95.1201 255.788C95.6202 256.987 95.5796 258.344 95.0089 259.519Z" fill="white" stroke="white" stroke-width="0.84831"/>
<path d="M85.4669 253.484C85.4706 253.344 85.4761 253.212 85.4842 253.114C85.5671 252.318 85.9935 251.601 86.6487 251.149C86.8578 251.024 87.0891 250.949 87.3187 250.936L87.3187 250.936L87.3303 250.935L90.6085 250.653L85.4669 253.484ZM83.5689 252.946C83.6643 252.825 83.7656 252.708 83.8721 252.596C83.8214 252.867 83.7942 253.143 83.7921 253.422L83.792 253.422L83.7921 253.429C83.8156 255.939 83.936 258.51 84.0504 260.452C84.0708 260.799 84.0911 261.126 84.1106 261.429L82.5998 258.206C82.0997 257.007 82.1403 255.649 82.7111 254.474L82.7112 254.474L82.7163 254.463C82.9519 253.939 83.2453 253.43 83.5689 252.946ZM90.3801 263.06L87.0986 263.343L92.2375 260.509C92.2338 260.65 92.2283 260.782 92.2201 260.879C92.1428 261.677 91.7172 262.394 91.0617 262.847C90.8525 262.972 90.6212 263.046 90.3917 263.06L90.3917 263.059L90.3801 263.06ZM94.722 260.092L94.7333 260.093C94.557 260.422 94.3613 260.741 94.1486 261.051C94.0528 261.173 93.9511 261.291 93.8442 261.403C93.8949 261.132 93.922 260.856 93.9241 260.577L93.9242 260.577L93.9241 260.57C93.9006 258.06 93.7802 255.489 93.6659 253.548C93.6455 253.202 93.6253 252.876 93.6059 252.574L95.1105 255.79C95.6106 256.989 95.57 258.347 94.9993 259.521L94.722 260.092Z" fill="white" stroke="white" stroke-width="0.84831"/>
<path d="M169.382 61.4971C168.892 59.668 169.977 57.788 171.806 57.2979L193.885 51.3821C195.714 50.892 197.594 51.9774 198.084 53.8064L204 75.8847C204.49 77.7138 203.404 79.5938 201.575 80.0839L179.497 85.9997C177.668 86.4898 175.788 85.4044 175.298 83.5754L169.382 61.4971Z" fill="#528BFF" stroke="black" stroke-width="2.28571"/>
<path d="M179.84 64.5628L179.845 64.5571L179.85 64.5513L182.667 61.2088L180.498 68.6931C180.372 68.5602 180.255 68.4336 180.173 68.336C179.5 67.5066 179.22 66.4317 179.41 65.3923C179.49 65.0785 179.637 64.7911 179.84 64.5628Z" fill="url(#paint6_linear_2118_278)" stroke="white" stroke-width="1.14286"/>
<path d="M178.833 72.2369L178.83 72.2289L178.827 72.221C178.556 71.5058 178.352 70.7488 178.201 69.988C178.178 69.7906 178.163 69.592 178.158 69.3929C178.363 69.6907 178.594 69.9714 178.851 70.2317L178.851 70.2318L178.858 70.2386C181.246 72.5823 183.783 74.8927 185.722 76.6158C186.06 76.916 186.379 77.1985 186.677 77.4603L182.243 75.8562C180.643 75.1978 179.402 73.8808 178.833 72.2369Z" fill="white" stroke="white" stroke-width="1.14286"/>
<path d="M194.159 73.0879L194.154 73.0937L194.148 73.0997L191.341 76.4349L193.51 68.9552C193.636 69.0884 193.752 69.2153 193.835 69.313C194.504 70.1324 194.785 71.2063 194.589 72.2575C194.509 72.5716 194.362 72.8594 194.159 73.0879Z" fill="url(#paint7_linear_2118_278)" stroke="white" stroke-width="1.14286"/>
<path d="M195.173 65.4028L195.175 65.4105L195.178 65.418C195.452 66.1425 195.654 66.8913 195.805 67.6516C195.828 67.8491 195.843 68.0477 195.848 68.2467C195.643 67.949 195.411 67.6683 195.155 67.4079L195.155 67.4079L195.148 67.401C192.76 65.0573 190.223 62.747 188.284 61.0239C187.946 60.7237 187.627 60.4412 187.329 60.1794L191.763 61.7835C193.363 62.4419 194.604 63.7589 195.173 65.4028Z" fill="white" stroke="white" stroke-width="1.14286"/>
<path d="M182.657 61.2158L180.489 68.6954C180.363 68.5626 180.247 68.4359 180.164 68.3383C179.493 67.5113 179.219 66.4348 179.41 65.3923C179.49 65.0785 179.637 64.7911 179.84 64.5628L179.845 64.557L179.85 64.551L182.657 61.2158ZM178.201 69.9882C178.178 69.7908 178.163 69.5922 178.158 69.3931C178.363 69.6909 178.594 69.9716 178.851 70.232L178.851 70.232L178.857 70.2388C181.245 72.5826 183.783 74.8929 185.722 76.616C186.059 76.9162 186.379 77.1987 186.677 77.4605L182.243 75.8564C180.642 75.198 179.402 73.881 178.833 72.2371L178.83 72.2291L178.827 72.2212C178.556 71.506 178.352 70.749 178.201 69.9882ZM191.339 76.4384L193.501 68.9583C193.628 69.0916 193.744 69.2186 193.827 69.3163C194.505 70.1399 194.779 71.2156 194.589 72.2585C194.509 72.5723 194.362 72.8597 194.159 73.088L194.154 73.0939L194.148 73.0999L191.339 76.4384ZM195.445 66.2216L195.456 66.2119C195.599 66.685 195.714 67.1671 195.806 67.6574C195.83 67.8557 195.844 68.0553 195.85 68.2553C195.645 67.9576 195.413 67.6769 195.157 67.4165L195.157 67.4165L195.15 67.4096C192.762 65.0659 190.225 62.7555 188.286 61.0325C187.95 60.7337 187.631 60.4525 187.335 60.1917L191.756 61.7944C193.356 62.4527 194.597 63.7698 195.166 65.4137L195.445 66.2216Z" fill="white" stroke="white" stroke-width="1.14286"/>
<path d="M404.143 47.31C404.96 44.2617 408.093 42.4526 411.142 43.2694L444.259 52.1432C447.307 52.96 449.117 56.0934 448.3 59.1418L439.426 92.2592C438.609 95.3076 435.476 97.1166 432.427 96.2998L399.31 87.426C396.262 86.6092 394.453 83.4759 395.269 80.4275L404.143 47.31Z" fill="#528BFF" stroke="black" stroke-width="2.28571"/>
<path d="M415.891 59.0126L415.898 59.0102L415.905 59.0076L423.338 56.321L413.579 65.691C413.47 65.2624 413.358 64.7933 413.302 64.4828C413.035 62.8157 413.502 61.1205 414.589 59.8466C414.958 59.4654 415.406 59.1735 415.891 59.0126Z" fill="url(#paint8_linear_2118_278)" stroke="white" stroke-width="1.14286"/>
<path d="M408.637 68.4434L408.639 68.4352L408.64 68.4268C408.828 67.272 409.136 66.1163 409.516 64.9998C409.767 64.4128 410.074 63.8492 410.43 63.3175C410.411 64.1631 410.506 65.0083 410.721 65.8341L410.721 65.8341L410.723 65.8435C412.066 70.6728 413.628 75.5722 414.853 79.2623C415.263 80.4956 415.635 81.5943 415.949 82.5107L410.41 75.9357C408.772 73.8143 408.127 71.0875 408.637 68.4434Z" fill="white" stroke="white" stroke-width="1.14286"/>
<path d="M428.278 81.3684L428.27 81.3708L428.263 81.3735L420.847 84.0601L430.602 74.6935C430.712 75.1225 430.824 75.5921 430.88 75.9025C431.149 77.5547 430.684 79.2494 429.58 80.5336C429.211 80.9152 428.763 81.2074 428.278 81.3684Z" fill="url(#paint9_linear_2118_278)" stroke="white" stroke-width="1.14286"/>
<path d="M435.549 71.9285L435.548 71.9365L435.546 71.9445C435.355 73.113 435.05 74.256 434.67 75.3722C434.419 75.9591 434.112 76.5227 433.756 77.0544C433.775 76.2089 433.68 75.3636 433.466 74.5379L433.466 74.5379L433.463 74.5285C432.121 69.6992 430.559 64.7997 429.333 61.1096C428.924 59.8764 428.552 58.7777 428.238 57.8613L433.776 64.4362C435.415 66.5577 436.059 69.2845 435.549 71.9285Z" fill="white" stroke="white" stroke-width="1.14286"/>
<path d="M415.891 59.0127L415.898 59.0102L415.906 59.0076L423.322 56.321L413.566 65.6876C413.457 65.259 413.345 64.7899 413.289 64.4794C413.023 62.8154 413.5 61.123 414.589 59.8468C414.958 59.4656 415.406 59.1736 415.891 59.0127ZM408.637 68.4437L408.638 68.4355L408.64 68.4272C408.827 67.2723 409.136 66.1166 409.516 65.0001C409.767 64.4131 410.074 63.8495 410.43 63.3179C410.411 64.1634 410.506 65.0086 410.72 65.8344L410.72 65.8344L410.723 65.8438C412.065 70.6731 413.627 75.5726 414.853 79.2626C415.262 80.4959 415.634 81.5946 415.948 82.511L410.409 75.9361C408.771 73.8146 408.127 71.0878 408.637 68.4437ZM428.277 81.3687L428.27 81.3712L428.263 81.3738L420.842 84.0619L430.589 74.691C430.699 75.1203 430.811 75.5901 430.867 75.9003C431.145 77.5662 430.669 79.258 429.58 80.5346C429.211 80.9158 428.763 81.2078 428.277 81.3687ZM435.532 71.9376L435.37 72.7771L435.405 72.77C435.219 73.6542 434.969 74.5239 434.667 75.3821C434.416 75.9701 434.108 76.5346 433.752 77.067C433.771 76.2215 433.676 75.3763 433.461 74.5505L433.461 74.5505L433.459 74.5411C432.116 69.7118 430.554 64.8124 429.329 61.1223C428.92 59.8914 428.549 58.7946 428.235 57.8793L433.759 64.4452C435.397 66.5666 436.042 69.2935 435.532 71.9376Z" fill="white" stroke="white" stroke-width="1.14286"/>
<path d="M1.87867 111.751C1.06186 108.703 2.87091 105.569 5.91928 104.752L39.0367 95.8787C42.0851 95.0619 45.2185 96.8709 46.0353 99.9193L54.9091 133.037C55.7259 136.085 53.9168 139.218 50.8685 140.035L17.751 148.909C14.7026 149.726 11.5693 147.917 10.7525 144.868L1.87867 111.751Z" fill="#528BFF" stroke="black" stroke-width="2.28571"/>
<path d="M17.9041 116.012L17.9091 116.006L17.9141 116L23.0079 109.957L19.2412 122.951C18.9326 122.635 18.6005 122.285 18.3969 122.044C17.3326 120.733 16.8894 119.032 17.1934 117.385C17.3223 116.871 17.5642 116.394 17.9041 116.012Z" fill="url(#paint10_linear_2118_278)" stroke="white" stroke-width="1.14286"/>
<path d="M16.3373 127.806L16.3346 127.798L16.3316 127.79C15.9166 126.696 15.6058 125.541 15.3769 124.384C15.3008 123.75 15.2851 123.109 15.3275 122.47C15.7338 123.212 16.2385 123.897 16.8371 124.505L16.8371 124.505L16.844 124.511C20.4214 128.022 24.2237 131.485 27.13 134.068C28.1013 134.931 28.9729 135.696 29.7031 136.333L21.6188 133.408C19.1394 132.39 17.2178 130.351 16.3373 127.806Z" fill="white" stroke="white" stroke-width="1.14286"/>
<path d="M39.8091 129.179L39.8039 129.185L39.7988 129.191L34.7197 135.226L38.485 122.236C38.794 122.553 39.1263 122.903 39.3299 123.144C40.3893 124.441 40.8335 126.141 40.52 127.805C40.3911 128.32 40.1492 128.797 39.8091 129.179Z" fill="url(#paint11_linear_2118_278)" stroke="white" stroke-width="1.14286"/>
<path d="M41.3865 117.368L41.3892 117.376L41.3921 117.384C41.8108 118.491 42.1181 119.634 42.3469 120.79C42.423 121.424 42.4388 122.066 42.3963 122.704C41.9901 121.962 41.4854 121.278 40.8867 120.67L40.8868 120.67L40.8798 120.663C37.3024 117.152 33.5001 113.69 30.5939 111.107C29.6225 110.244 28.7509 109.478 28.0208 108.842L36.105 111.766C38.5845 112.784 40.5061 114.824 41.3865 117.368Z" fill="white" stroke="white" stroke-width="1.14286"/>
<path d="M17.904 116.012L17.9092 116.006L17.9143 116L22.9934 109.966L19.2281 122.955C18.9194 122.638 18.5874 122.288 18.3838 122.047C17.3214 120.739 16.8887 119.035 17.1934 117.385C17.3223 116.871 17.5641 116.394 17.904 116.012ZM16.337 127.807L16.3343 127.799L16.3313 127.791C15.9163 126.697 15.6056 125.542 15.3767 124.385C15.3006 123.751 15.2848 123.109 15.3273 122.471C15.7335 123.213 16.2382 123.897 16.8368 124.505L16.8368 124.505L16.8437 124.512C20.4211 128.023 24.2234 131.485 27.1297 134.068C28.101 134.931 28.9727 135.697 29.7028 136.333L21.6186 133.409C19.1391 132.391 17.2175 130.351 16.337 127.807ZM39.809 129.18L39.8038 129.185L39.7987 129.191L34.7167 135.229L38.4724 122.241C38.7815 122.558 39.114 122.908 39.3174 123.149C40.3912 124.453 40.8245 126.156 40.5197 127.806C40.3908 128.321 40.1489 128.798 39.809 129.18ZM41.376 117.385L41.6555 118.193L41.6822 118.169C41.9631 119.028 42.1818 119.906 42.3491 120.8C42.4255 121.435 42.4414 122.078 42.3989 122.717C41.9927 121.975 41.4879 121.291 40.8893 120.683L40.8894 120.683L40.8824 120.676C37.305 117.165 33.5027 113.703 30.5964 111.12C29.627 110.258 28.7569 109.494 28.0276 108.858L36.0943 111.783C38.5739 112.801 40.4955 114.84 41.376 117.385Z" fill="white" stroke="white" stroke-width="1.14286"/>
<defs>
<filter id="filter0_d_2118_278" x="266" y="115.88" width="243.955" height="208.921" filterUnits="userSpaceOnUse" color-interpolation-filters="sRGB">
<feFlood flood-opacity="0" result="BackgroundImageFix"/>
<feColorMatrix in="SourceAlpha" type="matrix" values="0 0 0 0 0 0 0 0 0 0 0 0 0 0 0 0 0 0 127 0" result="hardAlpha"/>
<feOffset/>
<feGaussianBlur stdDeviation="20"/>
<feComposite in2="hardAlpha" operator="out"/>
<feColorMatrix type="matrix" values="0 0 0 0 0 0 0 0 0 0 0 0 0 0 0 0 0 0 0.05 0"/>
<feBlend mode="normal" in2="BackgroundImageFix" result="effect1_dropShadow_2118_278"/>
<feBlend mode="normal" in="SourceGraphic" in2="effect1_dropShadow_2118_278" result="shape"/>
</filter>
<filter id="filter1_d_2118_278" x="213.262" y="-4.83411" width="149.756" height="138.594" filterUnits="userSpaceOnUse" color-interpolation-filters="sRGB">
<feFlood flood-opacity="0" result="BackgroundImageFix"/>
<feColorMatrix in="SourceAlpha" type="matrix" values="0 0 0 0 0 0 0 0 0 0 0 0 0 0 0 0 0 0 127 0" result="hardAlpha"/>
<feOffset/>
<feGaussianBlur stdDeviation="20"/>
<feComposite in2="hardAlpha" operator="out"/>
<feColorMatrix type="matrix" values="0 0 0 0 0 0 0 0 0 0 0 0 0 0 0 0 0 0 0.05 0"/>
<feBlend mode="normal" in2="BackgroundImageFix" result="effect1_dropShadow_2118_278"/>
<feBlend mode="normal" in="SourceGraphic" in2="effect1_dropShadow_2118_278" result="shape"/>
</filter>
<filter id="filter2_d_2118_278" x="72.7871" y="88.1477" width="182.402" height="160.46" filterUnits="userSpaceOnUse" color-interpolation-filters="sRGB">
<feFlood flood-opacity="0" result="BackgroundImageFix"/>
<feColorMatrix in="SourceAlpha" type="matrix" values="0 0 0 0 0 0 0 0 0 0 0 0 0 0 0 0 0 0 127 0" result="hardAlpha"/>
<feOffset/>
<feGaussianBlur stdDeviation="20"/>
<feComposite in2="hardAlpha" operator="out"/>
<feColorMatrix type="matrix" values="0 0 0 0 0 0 0 0 0 0 0 0 0 0 0 0 0 0 0.05 0"/>
<feBlend mode="normal" in2="BackgroundImageFix" result="effect1_dropShadow_2118_278"/>
<feBlend mode="normal" in="SourceGraphic" in2="effect1_dropShadow_2118_278" result="shape"/>
</filter>
<linearGradient id="paint0_linear_2118_278" x1="232.231" y1="248.446" x2="222.714" y2="258.764" gradientUnits="userSpaceOnUse">
<stop offset="0.58" stop-color="#A0A8D4"/>
<stop offset="0.73" stop-color="#8791C7"/>
<stop offset="0.91" stop-color="#6470B4"/>
</linearGradient>
<linearGradient id="paint1_linear_2118_278" x1="232.437" y1="274.072" x2="241.956" y2="263.756" gradientUnits="userSpaceOnUse">
<stop offset="0.58" stop-color="#A0A8D4"/>
<stop offset="0.73" stop-color="#8791C7"/>
<stop offset="0.91" stop-color="#6470B4"/>
</linearGradient>
<linearGradient id="paint2_linear_2118_278" x1="294.139" y1="153.468" x2="288.428" y2="159.658" gradientUnits="userSpaceOnUse">
<stop offset="0.58" stop-color="#A0A8D4"/>
<stop offset="0.73" stop-color="#8791C7"/>
<stop offset="0.91" stop-color="#6470B4"/>
</linearGradient>
<linearGradient id="paint3_linear_2118_278" x1="294.262" y1="168.843" x2="299.974" y2="162.653" gradientUnits="userSpaceOnUse">
<stop offset="0.58" stop-color="#A0A8D4"/>
<stop offset="0.73" stop-color="#8791C7"/>
<stop offset="0.91" stop-color="#6470B4"/>
</linearGradient>
<linearGradient id="paint4_linear_2118_278" x1="92.6491" y1="250.309" x2="84.6081" y2="252.815" gradientUnits="userSpaceOnUse">
<stop offset="0.58" stop-color="#A0A8D4"/>
<stop offset="0.73" stop-color="#8791C7"/>
<stop offset="0.91" stop-color="#6470B4"/>
</linearGradient>
<linearGradient id="paint5_linear_2118_278" x1="85.0683" y1="263.686" x2="93.1094" y2="261.181" gradientUnits="userSpaceOnUse">
<stop offset="0.58" stop-color="#A0A8D4"/>
<stop offset="0.73" stop-color="#8791C7"/>
<stop offset="0.91" stop-color="#6470B4"/>
</linearGradient>
<linearGradient id="paint6_linear_2118_278" x1="184.27" y1="58.9422" x2="179.052" y2="68.886" gradientUnits="userSpaceOnUse">
<stop offset="0.58" stop-color="#A0A8D4"/>
<stop offset="0.73" stop-color="#8791C7"/>
<stop offset="0.91" stop-color="#6470B4"/>
</linearGradient>
<linearGradient id="paint7_linear_2118_278" x1="189.735" y1="78.7016" x2="194.955" y2="68.759" gradientUnits="userSpaceOnUse">
<stop offset="0.58" stop-color="#A0A8D4"/>
<stop offset="0.73" stop-color="#8791C7"/>
<stop offset="0.91" stop-color="#6470B4"/>
</linearGradient>
<linearGradient id="paint8_linear_2118_278" x1="425.952" y1="55.3051" x2="411.715" y2="64.3087" gradientUnits="userSpaceOnUse">
<stop offset="0.58" stop-color="#A0A8D4"/>
<stop offset="0.73" stop-color="#8791C7"/>
<stop offset="0.91" stop-color="#6470B4"/>
</linearGradient>
<linearGradient id="paint9_linear_2118_278" x1="418.23" y1="85.0716" x2="432.468" y2="76.0707" gradientUnits="userSpaceOnUse">
<stop offset="0.58" stop-color="#A0A8D4"/>
<stop offset="0.73" stop-color="#8791C7"/>
<stop offset="0.91" stop-color="#6470B4"/>
</linearGradient>
<linearGradient id="paint10_linear_2118_278" x1="24.7631" y1="107.771" x2="16.9355" y2="122.687" gradientUnits="userSpaceOnUse">
<stop offset="0.58" stop-color="#A0A8D4"/>
<stop offset="0.73" stop-color="#8791C7"/>
<stop offset="0.91" stop-color="#6470B4"/>
</linearGradient>
<linearGradient id="paint11_linear_2118_278" x1="32.9595" y1="137.41" x2="40.7893" y2="122.496" gradientUnits="userSpaceOnUse">
<stop offset="0.58" stop-color="#A0A8D4"/>
<stop offset="0.73" stop-color="#8791C7"/>
<stop offset="0.91" stop-color="#6470B4"/>
</linearGradient>
</defs>
</svg>
