<svg width="335" height="280" viewBox="0 0 335 280" fill="none" xmlns="http://www.w3.org/2000/svg">
<g clip-path="url(#clip0_2179_1049)">
<circle cx="255.5" cy="131.5" r="203.021" stroke="#E5E7EB" stroke-width="0.957647"/>
<circle cx="255.5" cy="131.5" r="131.198" stroke="#E5E7EB" stroke-width="0.957647"/>
<circle cx="255.5" cy="131.5" r="60.3318" stroke="#E5E7EB" stroke-width="0.957647"/>
<g filter="url(#filter0_d_2179_1049)">
<path d="M352.31 215.026L315.283 203.526C315.283 203.526 310.858 201.814 312.283 197.934C312.576 197.133 313.168 196.452 314.938 195.282C323.142 189.831 466.793 140.614 466.793 140.614C466.793 140.614 470.849 139.311 473.241 140.177C473.833 140.352 474.365 140.673 474.784 141.108C475.203 141.544 475.493 142.077 475.624 142.654C475.883 143.673 475.991 144.722 475.945 145.769C475.934 146.676 475.819 147.516 475.732 148.833C474.857 162.289 448.675 262.718 448.675 262.718C448.675 262.718 447.108 268.594 441.496 268.796C440.117 268.838 438.742 268.615 437.455 268.141C436.168 267.666 434.995 266.949 434.005 266.033C422.991 257.003 384.924 232.616 376.512 227.253C376.323 227.13 376.163 226.969 376.044 226.782C375.925 226.595 375.849 226.386 375.822 226.168C375.705 225.603 376.349 224.903 376.349 224.903C376.349 224.903 442.634 168.74 444.397 162.844C444.534 162.387 444.018 162.162 443.325 162.362C438.923 163.906 362.605 209.847 354.182 214.918C353.575 215.092 352.935 215.13 352.31 215.026Z" fill="white"/>
</g>
<g filter="url(#filter1_d_2179_1049)">
<path d="M295.302 45.8754L304.99 65.9804C304.99 65.9804 306.145 67.8399 307.2 67.7482C308.255 67.6564 322.591 50.7313 322.591 50.7313L337.245 17.0878L295.116 40.4842L295.302 45.8754Z" fill="#E7ECF1"/>
<path d="M306.213 50.2986L306.034 65.7548C306.034 65.7548 305.809 70.5055 310.326 65.3814C314.842 60.2573 319.241 56.2263 319.241 56.2263" fill="#D1D7DE"/>
<path d="M295.508 46.6051L278.861 42.9809C278.861 42.9809 276.859 42.4003 277.335 40.6472C277.433 40.2857 277.666 39.965 278.396 39.3853C281.78 36.6865 342.79 9.66991 342.79 9.66991C342.79 9.66991 344.516 8.94511 345.597 9.23334C345.862 9.28725 346.108 9.40763 346.307 9.58218C346.507 9.75674 346.655 9.97919 346.734 10.2268C346.886 10.6631 346.973 11.118 346.993 11.5784C347.023 11.9756 347.005 12.3477 347.017 12.9277C347.146 18.8517 339.509 63.8126 339.509 63.8126C339.509 63.8126 339.047 66.4448 336.598 66.7467C335.996 66.8178 335.386 66.7726 334.805 66.6139C334.223 66.4552 333.682 66.1861 333.214 65.8227C328.048 62.2889 310.455 53.0633 306.569 51.0358C306.481 50.9891 306.405 50.9249 306.346 50.8475C306.286 50.7701 306.245 50.6814 306.225 50.5873C306.152 50.3443 306.408 50.0132 306.408 50.0132C306.408 50.0132 333.286 22.9026 333.833 20.2544C333.876 20.0493 333.641 19.9702 333.346 20.0842C331.477 20.9277 299.818 43.9459 296.323 46.4863C296.065 46.586 295.786 46.6266 295.508 46.6051Z" fill="white"/>
</g>
<g filter="url(#filter2_d_2179_1049)">
<path d="M152.701 123.754L145.821 153.847C145.821 153.847 145.464 156.854 146.683 157.665C147.903 158.476 178.007 152.556 178.007 152.556L222.882 128.838L157.153 117.767L152.701 123.754Z" fill="#E7ECF1"/>
<path d="M160.678 137.952L147.144 154.504C147.144 154.504 142.801 159.445 152.106 157.804C161.41 156.164 169.643 155.603 169.643 155.603" fill="#D1D7DE"/>
<path d="M152.295 124.721L137.429 106.436C137.429 106.436 135.766 104.08 137.793 102.596C138.211 102.29 138.74 102.144 140.03 102.148C146.017 102.151 235.279 125.606 235.279 125.606C235.279 125.606 237.77 126.312 238.689 127.556C238.93 127.843 239.091 128.185 239.156 128.546C239.222 128.908 239.189 129.275 239.061 129.611C238.849 130.214 238.55 130.781 238.175 131.296C237.864 131.751 237.523 132.137 237.035 132.774C232.062 139.289 185.004 181.296 185.004 181.296C185.004 181.296 182.233 183.743 179.325 181.955C178.613 181.512 177.992 180.937 177.501 180.263C177.009 179.59 176.657 178.832 176.464 178.035C173.931 169.757 162.877 144.602 160.426 139.056C160.371 138.93 160.345 138.795 160.347 138.66C160.35 138.525 160.382 138.394 160.442 138.275C160.573 137.949 161.135 137.812 161.135 137.812C161.135 137.812 213.585 131.706 216.462 129.316C216.685 129.131 216.5 128.843 216.082 128.711C213.334 128.01 159.248 125.566 153.278 125.296C152.913 125.18 152.576 124.983 152.295 124.721Z" fill="white"/>
</g>
<rect x="237.4" y="213.4" width="37.2" height="37.2" rx="3.17143" fill="#528BFF" stroke="black" stroke-width="2.8"/>
<path d="M248.985 224.68L248.991 224.676L248.998 224.672L254.033 221.163L248.516 230.285C248.361 230.007 248.209 229.723 248.115 229.523C247.553 228.264 247.563 226.83 248.149 225.597C248.357 225.223 248.644 224.905 248.985 224.68Z" fill="url(#paint0_linear_2179_1049)" stroke="white" stroke-width="1.14286"/>
<path d="M245.223 233.75L245.222 233.741L245.222 233.733C245.124 232.77 245.123 231.78 245.188 230.805C245.247 230.392 245.338 229.983 245.458 229.583C245.625 230.163 245.859 230.723 246.16 231.254L246.16 231.254L246.164 231.262C248.288 234.862 250.603 238.47 252.385 241.177C252.861 241.899 253.299 242.557 253.686 243.134L248.227 239.328C246.474 237.99 245.381 235.96 245.223 233.75Z" fill="white" stroke="white" stroke-width="1.14286"/>
<path d="M263.673 239.844L263.667 239.848L263.66 239.852L258.639 243.357L264.154 234.238C264.308 234.517 264.461 234.802 264.555 235.002C265.116 236.247 265.107 237.681 264.51 238.926C264.302 239.3 264.015 239.619 263.673 239.844Z" fill="url(#paint1_linear_2179_1049)" stroke="white" stroke-width="1.14286"/>
<path d="M267.447 230.763L267.448 230.771L267.448 230.78C267.546 231.754 267.547 232.733 267.482 233.708C267.423 234.121 267.332 234.53 267.212 234.93C267.045 234.35 266.811 233.79 266.511 233.259L266.511 233.259L266.506 233.251C264.382 229.651 262.067 226.043 260.285 223.336C259.809 222.614 259.371 221.956 258.985 221.379L264.443 225.185C266.196 226.523 267.289 228.553 267.447 230.763Z" fill="white" stroke="white" stroke-width="1.14286"/>
<path d="M267.496 231.628L267.52 231.616C267.551 232.314 267.536 233.014 267.482 233.717C267.423 234.131 267.332 234.541 267.212 234.942C267.045 234.362 266.811 233.802 266.51 233.271L266.51 233.271L266.505 233.263C264.382 229.663 262.067 226.055 260.284 223.348C259.81 222.628 259.373 221.971 258.987 221.395L264.431 225.197C266.184 226.534 267.277 228.565 267.435 230.775L267.496 231.628ZM248.985 224.68L248.992 224.676L248.998 224.671L254.019 221.167L248.504 230.285C248.35 230.007 248.198 229.723 248.104 229.523C247.543 228.267 247.562 226.833 248.149 225.597C248.357 225.223 248.644 224.905 248.985 224.68ZM245.223 233.75L245.222 233.742L245.221 233.733C245.124 232.771 245.123 231.781 245.187 230.805C245.247 230.392 245.337 229.983 245.457 229.583C245.624 230.163 245.858 230.724 246.159 231.254L246.159 231.254L246.164 231.262C248.287 234.862 250.602 238.47 252.385 241.177C252.861 241.899 253.299 242.557 253.685 243.134L248.227 239.328C246.473 237.991 245.38 235.96 245.223 233.75ZM258.635 243.361L264.142 234.24C264.297 234.519 264.449 234.804 264.543 235.004C265.114 236.258 265.096 237.692 264.509 238.928C264.301 239.302 264.014 239.62 263.673 239.845L263.666 239.849L263.66 239.854L258.635 243.361Z" fill="white" stroke="white" stroke-width="1.14286"/>
<rect x="307.039" y="121.039" width="21.9216" height="21.9216" rx="2.35406" fill="#528BFF" stroke="black" stroke-width="2.07836"/>
<path d="M313.836 127.676L313.836 127.677L313.845 127.67L316.552 125.784L313.513 130.809C313.446 130.686 313.384 130.569 313.343 130.48C313.016 129.747 313.021 128.913 313.362 128.196C313.48 127.983 313.643 127.803 313.836 127.676Z" fill="url(#paint2_linear_2179_1049)" stroke="white" stroke-width="0.84831"/>
<path d="M311.615 133.044L311.615 133.044L311.614 133.032C311.556 132.461 311.555 131.872 311.593 131.292C311.615 131.139 311.645 130.987 311.681 130.837C311.773 131.097 311.887 131.35 312.025 131.593L312.025 131.593L312.028 131.599C313.303 133.76 314.693 135.926 315.763 137.551C315.954 137.841 316.136 138.115 316.304 138.368L313.384 136.331C312.351 135.543 311.708 134.347 311.615 133.044Z" fill="white" stroke="white" stroke-width="0.84831"/>
<path d="M322.559 136.639L322.559 136.639L322.549 136.645L319.851 138.529L322.889 133.506C322.956 133.63 323.017 133.747 323.059 133.836C323.385 134.561 323.38 135.395 323.033 136.119C322.914 136.332 322.751 136.512 322.559 136.639Z" fill="url(#paint3_linear_2179_1049)" stroke="white" stroke-width="0.84831"/>
<path d="M324.787 131.264L324.787 131.264L324.788 131.276C324.846 131.855 324.847 132.436 324.808 133.017C324.786 133.169 324.757 133.321 324.721 133.471C324.629 133.211 324.514 132.958 324.377 132.716L324.377 132.716L324.373 132.71C323.098 130.548 321.709 128.382 320.639 126.757C320.447 126.467 320.266 126.194 320.098 125.941L323.018 127.977C324.05 128.765 324.694 129.962 324.787 131.264Z" fill="white" stroke="white" stroke-width="0.84831"/>
<path d="M313.506 130.809C313.439 130.685 313.378 130.568 313.336 130.48C313.01 129.749 313.02 128.915 313.362 128.195C313.48 127.983 313.643 127.803 313.836 127.676L313.836 127.676L313.845 127.67L316.543 125.787L313.506 130.809ZM311.593 131.292C311.615 131.139 311.644 130.987 311.681 130.837C311.772 131.097 311.887 131.35 312.025 131.593L312.025 131.593L312.028 131.599C313.303 133.76 314.693 135.926 315.763 137.551C315.954 137.842 316.135 138.115 316.304 138.368L313.384 136.331C312.351 135.543 311.707 134.347 311.614 133.044L311.615 133.044L311.613 133.032C311.556 132.461 311.555 131.872 311.593 131.292ZM322.549 136.646L319.848 138.531L322.882 133.507C322.949 133.631 323.01 133.748 323.052 133.837C323.384 134.566 323.374 135.4 323.033 136.12C322.914 136.332 322.751 136.513 322.559 136.639L322.559 136.639L322.549 136.646ZM324.825 131.904L324.835 131.899C324.847 132.272 324.837 132.646 324.808 133.021C324.786 133.175 324.757 133.327 324.72 133.478C324.629 133.218 324.514 132.965 324.376 132.723L324.377 132.723L324.373 132.716C323.098 130.555 321.708 128.389 320.638 126.764C320.448 126.475 320.267 126.203 320.099 125.951L323.01 127.984C324.043 128.772 324.687 129.968 324.78 131.271L324.825 131.904Z" fill="white" stroke="white" stroke-width="0.84831"/>
<rect x="108.751" y="212.791" width="21.9216" height="21.9216" rx="2.35406" transform="rotate(30 108.751 212.791)" fill="#528BFF" stroke="black" stroke-width="2.07836"/>
<path d="M111.319 221.937L111.319 221.937L111.33 221.936L114.618 221.656L109.473 224.488C109.477 224.348 109.482 224.216 109.49 224.118C109.573 223.32 109.996 222.601 110.649 222.149C110.858 222.025 111.089 221.95 111.319 221.937Z" fill="url(#paint4_linear_2179_1049)" stroke="white" stroke-width="0.84831"/>
<path d="M106.711 225.476L106.711 225.476L106.716 225.464C106.952 224.941 107.245 224.431 107.569 223.947C107.664 223.826 107.766 223.709 107.872 223.597C107.822 223.868 107.794 224.145 107.792 224.423L107.792 224.423L107.792 224.431C107.816 226.94 107.936 229.511 108.051 231.453C108.071 231.8 108.091 232.127 108.111 232.43L106.6 229.207C106.1 228.008 106.14 226.65 106.711 225.476Z" fill="white" stroke="white" stroke-width="0.84831"/>
<path d="M114.392 234.061L114.392 234.061L114.38 234.062L111.102 234.343L116.244 231.513C116.24 231.653 116.234 231.786 116.226 231.883C116.147 232.674 115.725 233.394 115.063 233.848C114.853 233.973 114.622 234.047 114.392 234.061Z" fill="url(#paint5_linear_2179_1049)" stroke="white" stroke-width="0.84831"/>
<path d="M119.009 230.519L119.009 230.519L119.004 230.53C118.765 231.06 118.475 231.564 118.151 232.048C118.056 232.169 117.955 232.286 117.848 232.398C117.899 232.126 117.926 231.85 117.928 231.572L117.928 231.572L117.928 231.564C117.905 229.055 117.784 226.484 117.67 224.542C117.649 224.195 117.629 223.868 117.61 223.565L119.12 226.788C119.62 227.987 119.58 229.345 119.009 230.519Z" fill="white" stroke="white" stroke-width="0.84831"/>
<path d="M109.467 224.485C109.471 224.345 109.476 224.213 109.484 224.115C109.567 223.319 109.994 222.602 110.649 222.149C110.858 222.025 111.089 221.95 111.319 221.937L111.319 221.937L111.33 221.936L114.608 221.654L109.467 224.485ZM107.569 223.947C107.664 223.826 107.766 223.709 107.872 223.597C107.821 223.868 107.794 224.144 107.792 224.423L107.792 224.423L107.792 224.43C107.816 226.94 107.936 229.51 108.05 231.452C108.071 231.8 108.091 232.127 108.111 232.43L106.6 229.207C106.1 228.008 106.14 226.65 106.711 225.475L106.711 225.475L106.716 225.464C106.952 224.94 107.245 224.43 107.569 223.947ZM114.38 234.061L111.099 234.343L116.238 231.51C116.234 231.65 116.228 231.783 116.22 231.88C116.143 232.678 115.717 233.395 115.062 233.848C114.852 233.972 114.621 234.047 114.392 234.06L114.392 234.06L114.38 234.061ZM118.722 231.093L118.733 231.094C118.557 231.422 118.361 231.741 118.149 232.052C118.053 232.174 117.951 232.291 117.844 232.404C117.895 232.133 117.922 231.856 117.924 231.578L117.924 231.578L117.924 231.57C117.901 229.061 117.78 226.49 117.666 224.548C117.645 224.203 117.625 223.877 117.606 223.575L119.11 226.791C119.611 227.99 119.57 229.347 118.999 230.522L118.722 231.093Z" fill="white" stroke="white" stroke-width="0.84831"/>
<path d="M196.382 37.4968C195.892 35.6678 196.977 33.7878 198.806 33.2977L220.884 27.3818C222.714 26.8917 224.594 27.9772 225.084 29.8062L230.999 51.8845C231.49 53.7135 230.404 55.5935 228.575 56.0836L206.497 61.9995C204.668 62.4896 202.788 61.4042 202.298 59.5751L196.382 37.4968Z" fill="#528BFF" stroke="black" stroke-width="2.28571"/>
<path d="M206.839 40.5626L206.844 40.5569L206.849 40.551L209.667 37.2086L207.497 44.6929C207.371 44.56 207.255 44.4333 207.172 44.3357C206.499 43.5063 206.219 42.4315 206.41 41.3921C206.489 41.0783 206.636 40.7908 206.839 40.5626Z" fill="url(#paint6_linear_2179_1049)" stroke="white" stroke-width="1.14286"/>
<path d="M205.833 48.2373L205.83 48.2294L205.827 48.2215C205.556 47.5063 205.352 46.7493 205.201 45.9885C205.177 45.7911 205.163 45.5925 205.157 45.3934C205.363 45.6912 205.594 45.9719 205.85 46.2322L205.85 46.2323L205.857 46.2391C208.245 48.5828 210.783 50.8932 212.722 52.6163C213.059 52.9165 213.379 53.199 213.677 53.4608L209.243 51.8566C207.642 51.1983 206.402 49.8812 205.833 48.2373Z" fill="white" stroke="white" stroke-width="1.14286"/>
<path d="M221.158 49.088L221.153 49.0939L221.148 49.0999L218.341 52.435L220.509 44.9554C220.636 45.0885 220.752 45.2155 220.835 45.3132C221.504 46.1325 221.785 47.2064 221.589 48.2576C221.509 48.5717 221.362 48.8595 221.158 49.088Z" fill="url(#paint7_linear_2179_1049)" stroke="white" stroke-width="1.14286"/>
<path d="M222.172 41.4026L222.175 41.4102L222.178 41.4178C222.452 42.1423 222.653 42.891 222.804 43.6514C222.828 43.8488 222.842 44.0474 222.848 44.2465C222.642 43.9487 222.411 43.668 222.155 43.4077L222.155 43.4076L222.148 43.4008C219.76 41.0571 217.222 38.7467 215.284 37.0236C214.946 36.7234 214.626 36.441 214.328 36.1791L218.762 37.7833C220.363 38.4416 221.603 39.7587 222.172 41.4026Z" fill="white" stroke="white" stroke-width="1.14286"/>
<path d="M209.657 37.2161L207.489 44.6957C207.363 44.5628 207.246 44.4362 207.164 44.3385C206.493 43.5115 206.219 42.435 206.41 41.3926C206.489 41.0788 206.636 40.7913 206.84 40.5631L206.845 40.5572L206.85 40.5512L209.657 37.2161ZM205.201 45.9885C205.177 45.7911 205.163 45.5924 205.157 45.3934C205.362 45.6912 205.594 45.9719 205.85 46.2322L205.85 46.2323L205.857 46.2391C208.245 48.5828 210.782 50.8932 212.721 52.6163C213.059 52.9165 213.379 53.1989 213.676 53.4607L209.242 51.8566C207.642 51.1983 206.401 49.8812 205.833 48.2373L205.83 48.2294L205.827 48.2215C205.556 47.5062 205.351 46.7493 205.201 45.9885ZM218.338 52.4387L220.501 44.9585C220.627 45.0918 220.744 45.2189 220.827 45.3166C221.505 46.1402 221.779 47.2158 221.588 48.2588C221.509 48.5726 221.361 48.86 221.158 49.0883L221.153 49.0941L221.148 49.1001L218.338 52.4387ZM222.445 42.2219L222.456 42.2121C222.598 42.6852 222.714 43.1673 222.806 43.6576C222.829 43.856 222.844 44.0556 222.849 44.2556C222.644 43.9578 222.413 43.6771 222.156 43.4168L222.157 43.4167L222.15 43.4099C219.762 41.0662 217.224 38.7558 215.285 37.0327C214.949 36.7339 214.631 36.4527 214.334 36.1919L218.755 37.7946C220.356 38.453 221.596 39.77 222.165 41.414L222.445 42.2219Z" fill="white" stroke="white" stroke-width="1.14286"/>
<path d="M28.8787 81.7505C28.0619 78.7022 29.8709 75.5688 32.9193 74.752L66.0367 65.8782C69.0851 65.0614 72.2185 66.8704 73.0353 69.9188L81.9091 103.036C82.7259 106.085 80.9168 109.218 77.8685 110.035L44.751 118.909C41.7026 119.725 38.5693 117.916 37.7525 114.868L28.8787 81.7505Z" fill="#528BFF" stroke="black" stroke-width="2.28571"/>
<path d="M44.9038 86.0109L44.9089 86.0052L44.9138 85.9993L50.0077 79.9562L46.241 92.9504C45.9323 92.6337 45.6003 92.2837 45.3967 92.0428C44.3323 90.7323 43.8891 89.0308 44.1932 87.3842C44.3221 86.8697 44.5639 86.3929 44.9038 86.0109Z" fill="url(#paint8_linear_2179_1049)" stroke="white" stroke-width="1.14286"/>
<path d="M43.3373 97.8054L43.3346 97.7974L43.3316 97.7896C42.9166 96.6956 42.6058 95.5406 42.3769 94.3835C42.3008 93.7497 42.2851 93.108 42.3275 92.4696C42.7338 93.2114 43.2385 93.8959 43.8371 94.5038L43.8371 94.5039L43.844 94.5107C47.4214 98.0217 51.2237 101.484 54.13 104.067C55.1013 104.93 55.9729 105.696 56.7031 106.332L48.6188 103.408C46.1394 102.389 44.2178 100.35 43.3373 97.8054Z" fill="white" stroke="white" stroke-width="1.14286"/>
<path d="M66.8091 99.1789L66.8039 99.1847L66.7988 99.1907L61.7197 105.225L65.485 92.2358C65.794 92.5528 66.1263 92.9031 66.3299 93.1441C67.3893 94.4402 67.8335 96.1407 67.52 97.8045C67.3911 98.3195 67.1492 98.7966 66.8091 99.1789Z" fill="url(#paint9_linear_2179_1049)" stroke="white" stroke-width="1.14286"/>
<path d="M68.3863 87.3674L68.3889 87.375L68.3918 87.3826C68.8106 88.4901 69.1179 89.6325 69.3467 90.7893C69.4228 91.4231 69.4386 92.0648 69.3961 92.7032C68.9899 91.9614 68.4851 91.2768 67.8865 90.6689L67.8866 90.6689L67.8796 90.662C64.3022 87.151 60.4999 83.6889 57.5936 81.1059C56.6223 80.2427 55.7507 79.4772 55.0205 78.8406L63.1048 81.7653C65.5843 82.7834 67.5058 84.8226 68.3863 87.3674Z" fill="white" stroke="white" stroke-width="1.14286"/>
<path d="M44.9043 86.0111L44.9095 86.0053L44.9145 85.9993L49.9937 79.9647L46.2283 92.9542C45.9196 92.6375 45.5876 92.2875 45.384 92.0466C44.3216 90.7384 43.8889 89.0341 44.1936 87.3845C44.3225 86.8699 44.5644 86.3932 44.9043 86.0111ZM43.3373 97.8058L43.3345 97.7979L43.3315 97.79C42.9166 96.6961 42.6058 95.5411 42.3769 94.3839C42.3008 93.7501 42.285 93.1084 42.3275 92.47C42.7337 93.2118 43.2385 93.8964 43.8371 94.5043L43.837 94.5043L43.844 94.5112C47.4214 98.0222 51.2237 101.484 54.13 104.067C55.1013 104.931 55.9729 105.696 56.7031 106.333L48.6188 103.408C46.1393 102.39 44.2178 100.351 43.3373 97.8058ZM66.8093 99.1787L66.804 99.1846L66.799 99.1906L61.717 105.229L65.4726 92.2397C65.7818 92.5569 66.1142 92.9075 66.3176 93.1483C67.3915 94.4518 67.8247 96.1553 67.5199 97.8054C67.391 98.32 67.1491 98.7967 66.8093 99.1787ZM68.3762 87.384L68.6558 88.1919L68.6824 88.1683C68.9633 89.0272 69.182 89.9051 69.3494 90.7995C69.4258 91.4343 69.4417 92.0769 69.3991 92.7163C68.9929 91.9745 68.4882 91.29 67.8896 90.6821L67.8896 90.682L67.8827 90.6752C64.3053 87.1642 60.503 83.7021 57.5967 81.1191C56.6273 80.2575 55.7572 79.4934 55.0279 78.8575L63.0946 81.7818C65.5741 82.7999 67.4957 84.8392 68.3762 87.384Z" fill="white" stroke="white" stroke-width="1.14286"/>
</g>
<defs>
<filter id="filter0_d_2179_1049" x="272" y="99.8799" width="243.956" height="208.921" filterUnits="userSpaceOnUse" color-interpolation-filters="sRGB">
<feFlood flood-opacity="0" result="BackgroundImageFix"/>
<feColorMatrix in="SourceAlpha" type="matrix" values="0 0 0 0 0 0 0 0 0 0 0 0 0 0 0 0 0 0 127 0" result="hardAlpha"/>
<feOffset/>
<feGaussianBlur stdDeviation="20"/>
<feComposite in2="hardAlpha" operator="out"/>
<feColorMatrix type="matrix" values="0 0 0 0 0 0 0 0 0 0 0 0 0 0 0 0 0 0 0.05 0"/>
<feBlend mode="normal" in2="BackgroundImageFix" result="effect1_dropShadow_2179_1049"/>
<feBlend mode="normal" in="SourceGraphic" in2="effect1_dropShadow_2179_1049" result="shape"/>
</filter>
<filter id="filter1_d_2179_1049" x="237.262" y="-30.8344" width="149.756" height="138.594" filterUnits="userSpaceOnUse" color-interpolation-filters="sRGB">
<feFlood flood-opacity="0" result="BackgroundImageFix"/>
<feColorMatrix in="SourceAlpha" type="matrix" values="0 0 0 0 0 0 0 0 0 0 0 0 0 0 0 0 0 0 127 0" result="hardAlpha"/>
<feOffset/>
<feGaussianBlur stdDeviation="20"/>
<feComposite in2="hardAlpha" operator="out"/>
<feColorMatrix type="matrix" values="0 0 0 0 0 0 0 0 0 0 0 0 0 0 0 0 0 0 0.05 0"/>
<feBlend mode="normal" in2="BackgroundImageFix" result="effect1_dropShadow_2179_1049"/>
<feBlend mode="normal" in="SourceGraphic" in2="effect1_dropShadow_2179_1049" result="shape"/>
</filter>
<filter id="filter2_d_2179_1049" x="96.7871" y="62.1479" width="182.402" height="160.461" filterUnits="userSpaceOnUse" color-interpolation-filters="sRGB">
<feFlood flood-opacity="0" result="BackgroundImageFix"/>
<feColorMatrix in="SourceAlpha" type="matrix" values="0 0 0 0 0 0 0 0 0 0 0 0 0 0 0 0 0 0 127 0" result="hardAlpha"/>
<feOffset/>
<feGaussianBlur stdDeviation="20"/>
<feComposite in2="hardAlpha" operator="out"/>
<feColorMatrix type="matrix" values="0 0 0 0 0 0 0 0 0 0 0 0 0 0 0 0 0 0 0.05 0"/>
<feBlend mode="normal" in2="BackgroundImageFix" result="effect1_dropShadow_2179_1049"/>
<feBlend mode="normal" in="SourceGraphic" in2="effect1_dropShadow_2179_1049" result="shape"/>
</filter>
<linearGradient id="paint0_linear_2179_1049" x1="256.231" y1="219.447" x2="246.713" y2="229.764" gradientUnits="userSpaceOnUse">
<stop offset="0.58" stop-color="#A0A8D4"/>
<stop offset="0.73" stop-color="#8791C7"/>
<stop offset="0.91" stop-color="#6470B4"/>
</linearGradient>
<linearGradient id="paint1_linear_2179_1049" x1="256.437" y1="245.071" x2="265.956" y2="234.755" gradientUnits="userSpaceOnUse">
<stop offset="0.58" stop-color="#A0A8D4"/>
<stop offset="0.73" stop-color="#8791C7"/>
<stop offset="0.91" stop-color="#6470B4"/>
</linearGradient>
<linearGradient id="paint2_linear_2179_1049" x1="318.139" y1="124.468" x2="312.428" y2="130.659" gradientUnits="userSpaceOnUse">
<stop offset="0.58" stop-color="#A0A8D4"/>
<stop offset="0.73" stop-color="#8791C7"/>
<stop offset="0.91" stop-color="#6470B4"/>
</linearGradient>
<linearGradient id="paint3_linear_2179_1049" x1="318.262" y1="139.843" x2="323.973" y2="133.654" gradientUnits="userSpaceOnUse">
<stop offset="0.58" stop-color="#A0A8D4"/>
<stop offset="0.73" stop-color="#8791C7"/>
<stop offset="0.91" stop-color="#6470B4"/>
</linearGradient>
<linearGradient id="paint4_linear_2179_1049" x1="116.649" y1="221.31" x2="108.608" y2="223.816" gradientUnits="userSpaceOnUse">
<stop offset="0.58" stop-color="#A0A8D4"/>
<stop offset="0.73" stop-color="#8791C7"/>
<stop offset="0.91" stop-color="#6470B4"/>
</linearGradient>
<linearGradient id="paint5_linear_2179_1049" x1="109.068" y1="234.687" x2="117.109" y2="232.183" gradientUnits="userSpaceOnUse">
<stop offset="0.58" stop-color="#A0A8D4"/>
<stop offset="0.73" stop-color="#8791C7"/>
<stop offset="0.91" stop-color="#6470B4"/>
</linearGradient>
<linearGradient id="paint6_linear_2179_1049" x1="211.27" y1="34.9419" x2="206.051" y2="44.8857" gradientUnits="userSpaceOnUse">
<stop offset="0.58" stop-color="#A0A8D4"/>
<stop offset="0.73" stop-color="#8791C7"/>
<stop offset="0.91" stop-color="#6470B4"/>
</linearGradient>
<linearGradient id="paint7_linear_2179_1049" x1="216.734" y1="54.7017" x2="221.954" y2="44.7592" gradientUnits="userSpaceOnUse">
<stop offset="0.58" stop-color="#A0A8D4"/>
<stop offset="0.73" stop-color="#8791C7"/>
<stop offset="0.91" stop-color="#6470B4"/>
</linearGradient>
<linearGradient id="paint8_linear_2179_1049" x1="51.7628" y1="77.7698" x2="43.9352" y2="92.6855" gradientUnits="userSpaceOnUse">
<stop offset="0.58" stop-color="#A0A8D4"/>
<stop offset="0.73" stop-color="#8791C7"/>
<stop offset="0.91" stop-color="#6470B4"/>
</linearGradient>
<linearGradient id="paint9_linear_2179_1049" x1="59.9595" y1="107.41" x2="67.7893" y2="92.4957" gradientUnits="userSpaceOnUse">
<stop offset="0.58" stop-color="#A0A8D4"/>
<stop offset="0.73" stop-color="#8791C7"/>
<stop offset="0.91" stop-color="#6470B4"/>
</linearGradient>
<clipPath id="clip0_2179_1049">
<rect width="335" height="280" fill="white"/>
</clipPath>
</defs>
</svg>
