<svg xmlns="http://www.w3.org/2000/svg" width="20" height="20" viewBox="0 0 20 20" fill="none">
  <g clip-path="url(#clip0_2796_1336)">
    <path d="M19.8358 8.6116C19.383 8.30683 18.1931 8.17667 17.3281 8.40963C17.2815 7.54805 16.8372 6.82199 16.0244 6.18848L15.7236 5.98645L15.5231 6.28929C15.1289 6.88766 14.9628 7.68482 15.0217 8.40943C15.0681 8.85586 15.2234 9.3577 15.5231 9.72186C14.3972 10.3749 13.3595 10.2267 8.7637 10.2267H1.6681C1.64734 11.2644 1.81414 13.2606 3.08359 14.8857C3.22381 15.0652 3.37768 15.2388 3.54443 15.4061C4.57656 16.4397 6.13588 17.1975 8.46776 17.1997C12.025 17.2029 15.073 15.2801 16.9269 10.6309C17.5369 10.6408 19.1473 10.7403 19.9354 9.21727C19.9547 9.19164 20.1359 8.81335 20.1359 8.81335L19.8358 8.6116ZM6.29904 7.54074H4.30376V9.53602H6.29904V7.54074ZM8.87678 7.54074H6.8815V9.53602H8.87678V7.54074ZM11.4546 7.54074H9.4593V9.53602H11.4546V7.54074ZM14.0323 7.54074H12.037V9.53602H14.0323V7.54074ZM3.72124 7.54074H1.72573V9.53602H3.72103L3.72124 7.54074ZM6.29904 5.02034H4.30376V7.01562H6.29904V5.02034ZM8.87678 5.02034H6.8815V7.01562H8.87678V5.02034ZM11.4546 5.02034H9.4593V7.01562H11.4546V5.02034ZM11.4546 2.5H9.4593V4.49528H11.4546V2.5Z" fill="#9CA3AF"/>
  </g>
  <defs>
    <clipPath id="clip0_2796_1336">
      <rect width="20" height="20" fill="white"/>
    </clipPath>
  </defs>
</svg>
